<svg width="90" height="90" fill="none" xmlns="http://www.w3.org/2000/svg"><path d="M65.323 55.161V43.548h-5.807v-1.451a4.36 4.36 0 0 0-4.355-4.355h-2.903v-2.903a2.906 2.906 0 0 0-2.903-2.904h-2.903v-5.06c.095.125.195.253.278.36 1.658 2.146 3.09 3.994 4.81 2.996 1.74-1.013.798-3.327-.2-5.778-.286-.7-.722-1.772-.888-2.412.62-.163 1.708-.309 2.42-.405 2.671-.358 5.193-.697 5.193-2.765s-2.522-2.409-5.193-2.766c-.712-.097-1.8-.244-2.419-.405.166-.64.603-1.71.888-2.412.999-2.45 1.94-4.767.198-5.778-1.715-1.003-3.151.85-4.807 2.995-.49.634-1.247 1.616-1.732 2.076-.485-.459-1.241-1.44-1.73-2.075-1.658-2.145-3.09-3.996-4.81-2.996-1.74 1.014-.798 3.327.2 5.78.286.7.722 1.77.888 2.41-.62.164-1.708.31-2.42.406-2.671.358-5.192.697-5.192 2.765s2.52 2.408 5.192 2.766c.712.097 1.8.243 2.419.404-.166.64-.603 1.711-.888 2.413-.999 2.45-1.94 4.767-.198 5.777.33.193.65.28.964.279 1.314 0 2.507-1.542 3.842-3.275l.28-.361v5.061h-2.903a2.906 2.906 0 0 0-2.904 2.904v2.903h-2.903a4.36 4.36 0 0 0-4.355 4.355v1.451h-5.806v14.516H0V90h90V55.16H65.323Zm-23.506-30.78c.641-1.658.98-2.922.414-3.902-.594-1.035-1.98-1.335-3.901-1.607 1.922-.273 3.307-.572 3.901-1.607.567-.981.227-2.246-.416-3.903 1.085 1.344 2.047 2.295 3.185 2.295s2.1-.95 3.183-2.293c-.641 1.657-.98 2.922-.414 3.901.594 1.035 1.98 1.336 3.901 1.607-1.922.273-3.307.572-3.901 1.607-.567.982-.227 2.247.416 3.904-1.085-1.344-2.047-2.296-3.185-2.296s-2.1.95-3.183 2.294ZM40.645 34.84h8.71v2.903h-8.71V34.84Zm-7.258 7.258c0-.8.65-1.452 1.452-1.452H55.16c.801 0 1.452.652 1.452 1.452v1.451H33.387v-1.451Zm7.258 4.355h8.71v10.16L45 53.348l-4.355 3.266V46.452Zm-2.903 0V62.42L45 56.976l7.258 5.443V46.452H62.42v40.645H27.581V46.452h10.16ZM2.903 60.968h21.774v26.129H2.903v-26.13Zm84.194 26.129H65.323V58.064h21.774v29.033Z" fill="#BDC7D5"/><path d="M43.548 66.29v17.904h2.903V62.419h-3.629l-4.79 6.387 2.322 1.743 3.194-4.258Zm35.245 6.48-7.664 6.387v5.036h11.613V81.29h-8.71v-.772L80.654 75a5.79 5.79 0 0 0 2.088-4.459v-.864a5.812 5.812 0 0 0-5.807-5.806 5.812 5.812 0 0 0-5.806 5.806v1.452h2.903v-1.452a2.906 2.906 0 0 1 2.903-2.903 2.906 2.906 0 0 1 2.904 2.903v.864c0 .864-.382 1.677-1.046 2.23ZM18.87 69.677a5.812 5.812 0 0 0-5.806-5.806H7.258v2.903h5.806a2.906 2.906 0 0 1 2.903 2.903 2.906 2.906 0 0 1-2.903 2.903h-2.903v2.904h2.903a2.906 2.906 0 0 1 2.903 2.903 2.906 2.906 0 0 1-2.903 2.903H7.258v2.903h5.806a5.812 5.812 0 0 0 5.807-5.806 5.792 5.792 0 0 0-1.97-4.355 5.792 5.792 0 0 0 1.97-4.355ZM43.549 0h2.903v5.806H43.55V0Zm-14.37 6.555 2.053-2.053 4.105 4.107-2.053 2.052-4.105-4.106Zm24.955 2.052L58.239 4.5l2.053 2.053-4.105 4.106-2.053-2.053Z" fill="#E71E20"/></svg>