<svg width="90" height="90" fill="none" xmlns="http://www.w3.org/2000/svg"><path d="M85.645 20.323h-18.87V10.16H50.6c-.648-2.497-2.9-4.354-5.6-4.354s-4.952 1.857-5.6 4.355H29.032V0H5.806v23.226h10.162v5.806H4.355A4.36 4.36 0 0 0 0 33.387v23.226a4.36 4.36 0 0 0 4.355 4.355h11.613v5.806H5.806V90h23.226V79.839H39.4c.648 2.498 2.901 4.355 5.6 4.355s4.952-1.857 5.6-4.355h16.174V69.677h18.871A4.36 4.36 0 0 0 90 65.323V24.677a4.36 4.36 0 0 0-4.355-4.354Zm1.452 4.354v7.259H43.548v-7.259c0-.8.65-1.451 1.452-1.451h40.645c.802 0 1.452.65 1.452 1.451ZM45 8.71a2.906 2.906 0 0 1 2.903 2.903A2.906 2.906 0 0 1 45 14.516a2.906 2.906 0 0 1-2.903-2.903A2.906 2.906 0 0 1 45 8.71ZM8.71 2.903h17.419v17.42H8.709V2.903ZM4.355 31.936h27.58c.802 0 1.452.65 1.452 1.451v4.355H2.903v-4.355c0-.801.65-1.451 1.452-1.451ZM2.903 56.612V40.645h30.484v15.968c0 .801-.65 1.452-1.451 1.452H4.355c-.801 0-1.452-.65-1.452-1.452ZM26.13 87.097H8.709v-17.42h17.42v17.42ZM45 81.29a2.906 2.906 0 0 1-2.903-2.903A2.906 2.906 0 0 1 45 75.484a2.906 2.906 0 0 1 2.903 2.903A2.906 2.906 0 0 1 45 81.29Zm18.871-4.355h-13.27c-.65-2.498-2.902-4.354-5.601-4.354s-4.952 1.856-5.6 4.355H29.032V66.773H18.871v-5.806h13.065a4.36 4.36 0 0 0 4.354-4.355V33.387a4.36 4.36 0 0 0-4.354-4.355H18.87v-5.806h10.161V13.065H39.4c.648 2.498 2.901 4.354 5.6 4.354s4.952-1.856 5.6-4.354h13.271v7.258H45a4.36 4.36 0 0 0-4.355 4.354v40.646A4.36 4.36 0 0 0 45 69.677h18.871v7.258Zm21.774-10.16H45a1.453 1.453 0 0 1-1.452-1.452V34.839h43.549v30.484c0 .8-.65 1.451-1.452 1.451Z" fill="#BDC7D5"/><path d="M58.065 26.13h2.903v2.902h-2.904V26.13Zm-11.613 0h2.903v2.902h-2.903V26.13Zm5.806 0h2.903v2.902h-2.903V26.13Z" fill="#BDC7D5"/><path d="M46.452 49.355h14.516V37.742H46.452v11.613Zm2.903-8.71h8.71v5.807h-8.71v-5.807Zm-2.903 23.226h14.516V52.258H46.452v11.613Zm2.903-8.71h8.71v5.807h-8.71V55.16Z" fill="#E71E20"/><path d="M63.871 37.742h2.903v2.903h-2.903v-2.903Zm5.807 0h14.516v2.903H69.678v-2.903Zm-5.807 5.806h20.323v2.904H63.87v-2.904Zm0 8.71h20.323v2.903H63.87v-2.903Zm0 5.807h20.323v2.903H63.87v-2.904Z" fill="#BDC7D5"/><path d="M11.612 5.806h11.613V8.71H11.612V5.806Zm0 5.807h11.613v2.903H11.612v-2.903Zm0 60.967h11.613v2.904H11.612V72.58Zm0 5.807h11.613v2.903H11.612v-2.903Z" fill="#E71E20"/></svg>