<svg width="91" height="90" fill="none" xmlns="http://www.w3.org/2000/svg"><path d="M39.194 14.516h2.903c.8 0 1.451.652 1.451 1.452h2.904a4.36 4.36 0 0 0-4.355-4.355V8.71h-2.903v2.903a4.36 4.36 0 0 0-4.355 4.355 4.36 4.36 0 0 0 4.355 4.355h2.903c.8 0 1.451.651 1.451 1.451s-.651 1.452-1.451 1.452h-2.903c-.8 0-1.452-.652-1.452-1.452H34.84a4.36 4.36 0 0 0 4.355 4.355v2.903h2.903V26.13a4.36 4.36 0 0 0 4.355-4.355 4.36 4.36 0 0 0-4.355-4.355h-2.903c-.8 0-1.452-.651-1.452-1.451s.652-1.452 1.452-1.452Zm17.419 0h2.903c.8 0 1.452.652 1.452 1.452h2.903a4.36 4.36 0 0 0-4.355-4.355V8.71h-2.903v2.903a4.36 4.36 0 0 0-4.355 4.355 4.36 4.36 0 0 0 4.355 4.355h2.903c.8 0 1.452.651 1.452 1.451s-.652 1.452-1.452 1.452h-2.903c-.8 0-1.452-.652-1.452-1.452h-2.903a4.36 4.36 0 0 0 4.355 4.355v2.903h2.903V26.13a4.36 4.36 0 0 0 4.355-4.355 4.36 4.36 0 0 0-4.355-4.355h-2.903c-.8 0-1.452-.651-1.452-1.451s.652-1.452 1.452-1.452Zm17.42 0h2.903c.8 0 1.451.652 1.451 1.452h2.904a4.36 4.36 0 0 0-4.355-4.355V8.71h-2.903v2.903a4.36 4.36 0 0 0-4.355 4.355 4.36 4.36 0 0 0 4.355 4.355h2.903c.8 0 1.451.651 1.451 1.451s-.651 1.452-1.451 1.452h-2.903c-.8 0-1.452-.652-1.452-1.452h-2.903a4.36 4.36 0 0 0 4.355 4.355v2.903h2.903V26.13a4.36 4.36 0 0 0 4.355-4.355 4.36 4.36 0 0 0-4.355-4.355h-2.903c-.8 0-1.452-.651-1.452-1.451s.652-1.452 1.452-1.452ZM4.355 81.29A4.36 4.36 0 0 0 0 85.645 4.36 4.36 0 0 0 4.355 90a4.36 4.36 0 0 0 4.355-4.355 4.36 4.36 0 0 0-4.355-4.355Zm0 5.807c-.8 0-1.452-.652-1.452-1.452 0-.8.652-1.451 1.452-1.451.8 0 1.451.651 1.451 1.451s-.651 1.452-1.451 1.452Zm11.613-5.807a4.36 4.36 0 0 0-4.355 4.355A4.36 4.36 0 0 0 15.968 90a4.36 4.36 0 0 0 4.355-4.355 4.36 4.36 0 0 0-4.355-4.355Zm0 5.807c-.8 0-1.451-.652-1.451-1.452 0-.8.651-1.451 1.451-1.451s1.452.651 1.452 1.451-.652 1.452-1.452 1.452ZM27.58 81.29a4.36 4.36 0 0 0-4.354 4.355A4.36 4.36 0 0 0 27.58 90a4.36 4.36 0 0 0 4.355-4.355 4.36 4.36 0 0 0-4.355-4.355Zm0 5.807c-.8 0-1.451-.652-1.451-1.452 0-.8.652-1.451 1.451-1.451.8 0 1.452.651 1.452 1.451s-.652 1.452-1.452 1.452Z" fill="#E71E20"/><path d="M82.936 0H21.968c-3.538 0-6.483 2.548-7.122 5.9C9.864 6.55 6 10.813 6 15.969v46.794l6.762 13.523a3.778 3.778 0 0 0 3.4 2.102 3.78 3.78 0 0 0 3.399-2.1l6.762-13.525v-25.02h8.71v47.903A4.36 4.36 0 0 0 39.386 90h40.645a4.36 4.36 0 0 0 4.355-4.355v-48.05c3.308-.675 5.807-3.605 5.807-7.111V7.258C90.194 3.256 86.938 0 82.936 0ZM8.903 23.226h5.807v37.742H8.903V23.226Zm8.061 51.763c-.306.611-1.3.611-1.604 0L9.8 63.87h12.722l-5.558 11.118Zm6.455-14.021h-5.806V23.226h5.806v37.742Zm0-40.645H8.903v-4.355c0-4.002 3.256-7.258 7.258-7.258 4.002 0 7.258 3.256 7.258 7.258v4.355Zm58.065 65.322c0 .8-.652 1.452-1.452 1.452H39.387c-.8 0-1.452-.652-1.452-1.452v-36.29h43.549v36.29Zm0-39.193H37.936v-8.71H61.16v1.13a4.681 4.681 0 0 0 4.676 4.676 4.687 4.687 0 0 0 2.92-1.024l5.978-4.782h6.749v8.71Zm5.806-15.968a4.36 4.36 0 0 1-4.355 4.355h-9.219l-6.773 5.417a1.77 1.77 0 0 1-2.879-1.383v-4.034H26.323V15.968c0-5.033-3.68-9.21-8.49-10.012.558-1.762 2.19-3.053 4.135-3.053h60.968a4.36 4.36 0 0 1 4.354 4.355v23.226Z" fill="#BDC7D5"/><path d="M46.451 40.645h2.903v2.903h-2.903v-2.903Zm-5.806 0h2.904v2.903h-2.904v-2.903Zm11.613 0h2.903v2.903h-2.903v-2.903Z" fill="#BDC7D5"/><path d="M60.968 52.258H40.645v20.323h20.323V52.258Zm-2.903 17.42H43.549V55.16h14.516v14.516Zm5.806-17.42h14.516v2.903H63.871v-2.903Z" fill="#E71E20"/><path d="M75.483 58.065h2.904v2.903h-2.904v-2.904Zm-11.612 0h8.71v2.903h-8.71v-2.904Zm0 5.805h14.516v2.904H63.871v-2.903Zm0 5.807h14.516v2.904H63.871v-2.904Zm-23.226 5.807h5.807v2.903h-5.806v-2.903Zm8.71 0h29.032v2.903H49.355v-2.903Zm-8.71 5.806h37.742v2.903H40.645V81.29Z" fill="#BDC7D5"/></svg>