<svg width="90" height="90" fill="none" xmlns="http://www.w3.org/2000/svg"><path d="M21.774 4.806h14.517V7.71H21.774V4.806ZM26.13 16.42h-2.904v15.967h-2.903V20.774H17.42v11.613h-2.904V25.13h-2.903v7.258H8.71v2.903h20.322v-2.903H26.13V16.42Z" fill="#E71E20"/><path d="M8.71 38.194h2.903v2.903H8.71v-2.903Zm5.807 0h14.516v2.903H14.517v-2.903Z" fill="#BDC7D5"/><path d="M85.645 59.516A4.36 4.36 0 0 0 90 55.161V32.81c0-2.87-2.144-5.342-4.985-5.748l-5.176-.74v-2.428a8.68 8.68 0 0 0 2.903-6.474v-2.903c0-4.803-3.906-8.71-8.71-8.71-4.803 0-8.71 3.907-8.71 8.71v2.903c0 2.571 1.127 4.878 2.904 6.474v2.429l-8.135 1.163-4.996-5.71h.066v-7.259h2.904v-8.71H42.698L36.89 0H21.173l-5.806 5.806H0v8.71h2.903v34.839H0v8.71h14.516v4.082l-9.703 24.95H0V90h90v-2.903h-5.806V59.249c.455.163.94.267 1.451.267ZM75.407 41.573l-1.375 1.374-1.374-1.374 1.206-9.647c.056.001.11.01.168.01.058 0 .112-.009.169-.01l1.206 9.647Zm-7.181-27.057a5.812 5.812 0 0 1 5.806-5.806 5.812 5.812 0 0 1 5.807 5.806v2.903a5.812 5.812 0 0 1-5.807 5.807 5.812 5.812 0 0 1-5.806-5.807v-2.903Zm5.806 11.613c1.02 0 1.993-.186 2.904-.508v1.56c-.36.556-1.36 1.851-2.904 1.851-1.546 0-2.547-1.3-2.903-1.85V25.62c.91.322 1.884.508 2.903.508Zm-5.07 3.02c.44.593 1.13 1.36 2.08 1.937L69.6 42.621l4.432 4.432 4.432-4.432-1.441-11.535c.95-.579 1.641-1.344 2.08-1.938l5.502.786a2.918 2.918 0 0 1 2.492 2.874v22.353c0 .8-.652 1.452-1.452 1.452-.8 0-1.451-.652-1.451-1.452V34.84H81.29v14.516H66.774V34.839h-8.766c-.443 0-.856-.2-1.134-.545L46.79 21.688a1.554 1.554 0 0 1-.338-.965v-.309a1.545 1.545 0 0 1 2.705-1.016l9.784 11.182 10.02-1.431ZM24.677 63.87v23.226H13.735l9.032-23.226h1.91Zm2.904 0h2.903v23.226H27.58V63.87Zm5.806 0h1.91l9.033 23.226H33.387V63.87Zm5.026 0h2.69l9.033 23.226h-2.691L38.413 63.87Zm5.135-1.724v-4.082h14.517v-8.71H55.16V36.66a4.32 4.32 0 0 0 2.847 1.082h5.863v49.355H53.25l-9.703-24.95Zm23.226-9.889h5.807v34.839h-5.807V52.258ZM2.904 8.71h13.665l5.806-5.807H35.69l5.807 5.807H55.16v2.903H2.903V8.71Zm2.902 5.806h46.452v4.017l-.916-1.047a4.447 4.447 0 0 0-7.794 2.928v.31c0 1.003.346 1.99.974 2.777l7.736 9.67v16.184H5.806V14.516ZM2.903 52.258h52.258v2.903H2.903v-2.903Zm37.742 5.806v2.904H17.42v-2.904h23.226Zm-23.684 5.807h2.691L10.62 87.097H7.929L16.96 63.87Zm58.523 23.226V52.258h5.806v34.839h-5.806Z" fill="#BDC7D5"/><path d="M40.645 28.032c-4.803 0-8.71 3.906-8.71 8.71 0 4.803 3.907 8.71 8.71 8.71 4.804 0 8.71-3.907 8.71-8.71 0-4.804-3.906-8.71-8.71-8.71Zm-1.451 3.11v4.148h-4.149a5.798 5.798 0 0 1 4.149-4.148Zm-4.149 7.052h4.149v4.148a5.798 5.798 0 0 1-4.149-4.148Zm7.052 4.148v-11.2c2.497.648 4.355 2.903 4.355 5.6 0 2.697-1.858 4.952-4.355 5.6Z" fill="#E71E20"/></svg>