<svg width="90" height="90" fill="none" xmlns="http://www.w3.org/2000/svg"><path d="M45 20.323c-4.804 0-8.71 3.906-8.71 8.71 0 4.803 3.906 8.709 8.71 8.709 4.803 0 8.71-3.906 8.71-8.71 0-4.803-3.907-8.71-8.71-8.71Zm0 14.516a5.812 5.812 0 0 1-5.807-5.807A5.812 5.812 0 0 1 45 23.226a5.812 5.812 0 0 1 5.806 5.806A5.812 5.812 0 0 1 45 34.84Z" fill="#E71E20"/><path d="M43.548 5.806h2.903V8.71h-2.903V5.806Zm-16.001 7.832 2.053-2.053 2.053 2.053L29.6 15.69l-2.053-2.053ZM21.774 27.58h2.904v2.904h-2.904v-2.903Zm5.769 16.848 2.053-2.053 2.053 2.053-2.053 2.052-2.053-2.052Zm16.005 4.927h2.903v2.903h-2.903v-2.903Zm14.786-4.924 2.053-2.053 2.053 2.053-2.053 2.053-2.053-2.053Zm6.989-16.851h2.904v2.904h-2.904v-2.903Zm-6.986-13.939 2.053-2.053 2.053 2.053-2.053 2.053-2.053-2.053ZM45 11.613c-9.606 0-17.42 7.814-17.42 17.42 0 9.605 7.814 17.419 17.42 17.419 9.605 0 17.419-7.814 17.419-17.42 0-9.605-7.814-17.419-17.42-17.419Zm0 31.935c-8.005 0-14.517-6.511-14.517-14.516 0-8.004 6.512-14.516 14.516-14.516 8.005 0 14.517 6.512 14.517 14.516 0 8.005-6.512 14.516-14.517 14.516Z" fill="#BDC7D5"/><path d="M84.194 63.871v-2.903h-8.71V41.37l-5.664-4.247c.154-.474.302-.948.428-1.429l3.784-1.261V23.632l-3.783-1.261a25.868 25.868 0 0 0-2.688-6.474l1.787-3.573-7.64-7.64-3.57 1.787a25.972 25.972 0 0 0-6.475-2.688L50.402 0H39.6l-1.263 3.783a25.864 25.864 0 0 0-6.474 2.688L28.29 4.684l-7.64 7.64 1.787 3.573a25.972 25.972 0 0 0-2.689 6.474l-3.781 1.26v10.801l3.783 1.262c.126.482.274.956.428 1.428l-5.663 4.249v19.597h-8.71v2.903H0v23.226h10.192C11.555 88.906 13.699 90 15.968 90c2.269 0 4.413-1.094 5.776-2.903h10.192V63.87h-5.807v-2.903h-8.71V42.823l3.866-2.9c.351.763.727 1.515 1.154 2.245l-1.787 3.572 7.64 7.64 3.572-1.787a25.97 25.97 0 0 0 6.475 2.689l1.26 3.783H50.4l1.261-3.783a25.861 25.861 0 0 0 6.475-2.689l3.572 1.787 7.64-7.64-1.787-3.572a26.04 26.04 0 0 0 1.154-2.246l3.866 2.9v18.146h-8.71v2.903h-5.806v23.226h10.191C69.62 88.906 71.763 90 74.032 90c2.27 0 4.413-1.094 5.776-2.903H90V63.87h-5.806Zm-55.162 2.903v17.42h-8.898l-.42.721c-.795 1.366-2.196 2.182-3.746 2.182-1.55 0-2.951-.816-3.747-2.182l-.42-.721H2.904v-17.42h2.903V81.29H26.13V66.774h2.903Zm-5.806 11.613H8.71V63.871h14.516v14.516Zm37.91-28.539-3.146-1.573-.692.432a23.038 23.038 0 0 1-7.085 2.941l-.796.183-1.109 3.33H41.69l-1.11-3.33-.796-.183a23.038 23.038 0 0 1-7.085-2.94l-.692-.433-3.146 1.573-4.68-4.68 1.573-3.145-.432-.693a23.037 23.037 0 0 1-2.941-7.085l-.183-.795-3.327-1.11v-6.617l3.33-1.11.183-.796a23.037 23.037 0 0 1 2.94-7.086l.433-.692-1.573-3.143 4.68-4.68L32.01 9.79l.692-.433a23.038 23.038 0 0 1 7.085-2.94l.796-.184 1.109-3.33h6.618l1.11 3.33.796.183A23.038 23.038 0 0 1 57.3 9.357l.692.433 3.146-1.574 4.68 4.68-1.573 3.146.432.692a23.037 23.037 0 0 1 2.941 7.085l.183.796 3.327 1.109v6.618l-3.33 1.11-.183.796a23.037 23.037 0 0 1-2.94 7.085l-.433.693 1.573 3.145-4.68 4.677Zm5.638 14.023H81.29v14.516H66.774V63.871Zm20.323 20.323h-8.899l-.42.721c-.795 1.366-2.195 2.182-3.746 2.182-1.55 0-2.95-.816-3.746-2.182l-.42-.721h-8.898v-17.42h2.903V81.29h20.323V66.774h2.903v17.42Z" fill="#BDC7D5"/><path d="M69.677 66.774h8.71v2.903h-8.71v-2.903Zm0 5.806h8.71v2.904h-8.71v-2.903Zm-58.064-5.806h8.71v2.903h-8.71v-2.903Zm0 5.806h8.71v2.904h-8.71v-2.903Zm21.173 0h4.956V90h14.516V72.58h4.956L45 60.368 32.786 72.58Zm16.569-2.903v17.42h-8.71v-17.42h-.85L45 64.472l5.206 5.205h-.851Z" fill="#E71E20"/></svg>