<svg width="99" height="70" viewBox="0 0 99 70" fill="none" xmlns="http://www.w3.org/2000/svg">
<path d="M96.9602 10.9533C95.8194 6.67024 92.4755 3.29393 88.2349 2.14063C80.4878 0 49.4989 0 49.4989 0C49.4989 0 18.5112 0 10.7641 2.05947C6.60505 3.21155 3.17956 6.67085 2.03874 10.9533C0 18.7763 0 35 0 35C0 35 0 51.3055 2.03874 59.0467C3.18077 63.3291 6.52347 66.7055 10.7647 67.8588C18.5927 70 49.5001 70 49.5001 70C49.5001 70 80.4878 70 88.2349 67.9405C92.4761 66.7878 95.8194 63.4115 96.9614 59.129C98.9996 51.3055 98.9996 35.0824 98.9996 35.0824C98.9996 35.0824 99.0812 18.7763 96.9602 10.9533ZM39.6327 49.9881V20.0119L65.4015 35L39.6327 49.9881Z" fill="white"/>
</svg>
