<svg width="24" height="24" viewBox="0 0 24 24" fill="none" xmlns="http://www.w3.org/2000/svg">
<path fill-rule="evenodd" clip-rule="evenodd" d="M12 24C18.6274 24 24 18.6274 24 12C24 5.37258 18.6274 0 12 0C5.37258 0 0 5.37258 0 12C0 18.6274 5.37258 24 12 24Z" fill="#BDC7D5"/>
<path fill-rule="evenodd" clip-rule="evenodd" d="M18.1723 12.0665C18.1723 12.5102 18.1242 12.9419 18.0316 13.3589C18.2672 13.8263 18.3996 14.3523 18.3996 14.9095C18.3996 16.8369 16.8147 18.4001 14.8594 18.4001C14.2536 18.4001 13.6847 18.2495 13.1857 17.9854C12.8229 18.0514 12.4497 18.0863 12.0673 18.0863C8.69575 18.0863 5.96236 15.3917 5.96236 12.0665C5.96236 11.6525 6.00525 11.2474 6.08578 10.8572C5.77722 10.3379 5.59961 9.73545 5.59961 9.09148C5.59961 7.16254 7.18456 5.6001 9.14053 5.6001C9.83216 5.6001 10.4779 5.7967 11.0235 6.13575C11.3637 6.07788 11.7121 6.04746 12.0673 6.04746C15.4397 6.04746 18.1723 8.74279 18.1723 12.0665ZM13.9583 15.8708C14.5002 15.6497 14.9171 15.3381 15.1994 14.9434C15.4823 14.548 15.6268 14.0961 15.6268 13.6006C15.6268 13.1858 15.5433 12.8297 15.3785 12.5396C15.2137 12.2518 14.9826 12.0114 14.6906 11.8237C14.4031 11.639 14.0524 11.4817 13.6453 11.3541C13.2441 11.2272 12.7903 11.1093 12.2959 11.0054C11.9053 10.9164 11.6208 10.8474 11.4515 10.8006C11.2859 10.7561 11.1203 10.6923 10.96 10.6129C10.805 10.5358 10.6823 10.4453 10.5965 10.3399C10.5138 10.242 10.4739 10.127 10.4739 9.99047C10.4739 9.76642 10.598 9.57723 10.8524 9.41327C11.1166 9.24189 11.4733 9.15583 11.9098 9.15583C12.3817 9.15583 12.7241 9.23299 12.9296 9.38731C13.141 9.54607 13.3254 9.77087 13.4774 10.0558C13.6091 10.2783 13.7281 10.4341 13.8424 10.5343C13.9644 10.6411 14.142 10.696 14.3678 10.696C14.6161 10.696 14.8276 10.6092 14.9947 10.4371C15.161 10.2672 15.2453 10.0713 15.2453 9.85619C15.2453 9.63288 15.1805 9.40215 15.0541 9.16993C14.9292 8.93994 14.729 8.7196 14.4603 8.51187C14.1939 8.30636 13.8552 8.14017 13.4526 8.01702C13.0522 7.89386 12.5728 7.83154 12.028 7.83154C11.3454 7.83154 10.7433 7.92502 10.2368 8.10976C9.72278 8.29597 9.32391 8.57048 9.05148 8.92139C8.77603 9.27454 8.6368 9.68481 8.6368 10.1389C8.6368 10.6159 8.77001 11.0217 9.03191 11.3459C9.29005 11.6642 9.64301 11.9187 10.081 12.1019C10.5085 12.2822 11.0466 12.4402 11.681 12.5738C12.1469 12.6702 12.5232 12.763 12.8009 12.8475C13.0665 12.9306 13.2855 13.0493 13.4526 13.2022C13.6106 13.3491 13.6882 13.536 13.6882 13.7727C13.6882 14.0739 13.5407 14.3202 13.2359 14.5242C12.925 14.7334 12.5111 14.8403 12.0061 14.8403C11.6396 14.8403 11.3408 14.7869 11.1196 14.6845C10.8998 14.5813 10.7275 14.45 10.6071 14.2927C10.4829 14.1318 10.3655 13.9255 10.2571 13.6807C10.16 13.4574 10.0396 13.283 9.89889 13.1651C9.75213 13.0426 9.57076 12.9811 9.36154 12.9811C9.10566 12.9811 8.89118 13.059 8.7241 13.2148C8.55552 13.3713 8.46973 13.5627 8.46973 13.7823C8.46973 14.1362 8.60068 14.502 8.86032 14.8699C9.11695 15.2364 9.45486 15.5317 9.86502 15.7498C10.4392 16.0503 11.1745 16.2024 12.0513 16.2024C12.7821 16.2024 13.4233 16.0904 13.9583 15.8708Z" fill="#E8EFF7"/>
</svg>
