<svg width="24" height="24" viewBox="0 0 24 24" fill="none" xmlns="http://www.w3.org/2000/svg">
<path fill-rule="evenodd" clip-rule="evenodd" d="M12 24C18.6274 24 24 18.6274 24 12C24 5.37258 18.6274 0 12 0C5.37258 0 0 5.37258 0 12C0 18.6274 5.37258 24 12 24Z" fill="#BDC7D5"/>
<path fill-rule="evenodd" clip-rule="evenodd" d="M9.8002 17.5C9.41144 17.5 9.4775 17.3532 9.34342 16.9831L8.2002 13.2206L17.0002 8" fill="#E8EFF7"/>
<path fill-rule="evenodd" clip-rule="evenodd" d="M9.7998 17.5C10.0998 17.5 10.2324 17.3628 10.3998 17.2L11.9998 15.6442L10.004 14.4407" fill="#7C8A9C"/>
<path fill-rule="evenodd" clip-rule="evenodd" d="M10.0037 14.441L14.8397 18.0139C15.3916 18.3184 15.7899 18.1607 15.9273 17.5015L17.8958 8.22524C18.0974 7.41722 17.5878 7.05074 17.0599 7.29042L5.50088 11.7475C4.71187 12.064 4.71647 12.5042 5.35706 12.7003L8.32336 13.6262L15.1907 9.29365C15.5149 9.09706 15.8124 9.20275 15.5682 9.41949" fill="#E8EFF7"/>
</svg>
