<svg width="24" height="24" viewBox="0 0 24 24" fill="none" xmlns="http://www.w3.org/2000/svg">
<path fill-rule="evenodd" clip-rule="evenodd" d="M0 12C0 5.37258 5.37258 0 12 0C18.6274 0 24 5.37258 24 12C24 18.6274 18.6274 24 12 24C5.37258 24 0 18.6274 0 12Z" fill="#BDC7D5"/>
<path fill-rule="evenodd" clip-rule="evenodd" d="M12.6273 15.9381C12.6273 15.9381 12.8584 15.9129 12.9767 15.7881C13.085 15.6738 13.0812 15.4581 13.0812 15.4581C13.0812 15.4581 13.0668 14.4509 13.5432 14.3022C14.0128 14.156 14.6157 15.2762 15.2555 15.707C15.7388 16.0327 16.1057 15.9614 16.1057 15.9614L17.8154 15.9381C17.8154 15.9381 18.7094 15.884 18.2856 15.1939C18.2505 15.1374 18.0383 14.6832 17.0147 13.7504C15.9423 12.7739 16.0863 12.9318 17.3772 11.2425C18.1635 10.2138 18.4778 9.58572 18.3795 9.31717C18.2862 9.0603 17.7077 9.12851 17.7077 9.12851L15.7833 9.14019C15.7833 9.14019 15.6405 9.12114 15.5347 9.18321C15.4314 9.24405 15.3644 9.386 15.3644 9.386C15.3644 9.386 15.0602 10.1818 14.6539 10.859C13.7968 12.2872 13.4544 12.3628 13.3141 12.2743C12.9879 12.0672 13.0693 11.4434 13.0693 11.0004C13.0693 9.61583 13.2834 9.03879 12.653 8.88946C12.4439 8.83969 12.2899 8.80712 11.7546 8.80159C11.0679 8.79483 10.4869 8.80404 10.1576 8.96198C9.93846 9.06706 9.76943 9.30181 9.87273 9.31533C9.99982 9.33192 10.2878 9.39153 10.4406 9.59556C10.6378 9.85919 10.6309 10.4504 10.6309 10.4504C10.6309 10.4504 10.7442 12.0801 10.3661 12.2823C10.1069 12.4212 9.75127 12.1379 8.98687 10.8418C8.59559 10.1781 8.30009 9.44438 8.30009 9.44438C8.30009 9.44438 8.24312 9.30734 8.14108 9.2336C8.01775 9.14449 7.84558 9.11684 7.84558 9.11684L6.01689 9.12851C6.01689 9.12851 5.74206 9.13589 5.64127 9.25326C5.55174 9.35712 5.63438 9.57282 5.63438 9.57282C5.63438 9.57282 7.06615 12.8612 8.68762 14.5185C10.1745 16.0376 11.8623 15.9381 11.8623 15.9381H12.6273Z" fill="#E8EFF7"/>
</svg>
