<svg width="194" height="37" fill="none" xmlns="http://www.w3.org/2000/svg"><path d="M81.736 29.461h-2.538l-.57 1.594h-.823l2.313-6.107h.699l2.317 6.107h-.82l-.578-1.594ZM79.44 28.8h2.06l-1.033-2.857L79.44 28.8Zm4.594 2.256v-6.107h1.981c.657 0 1.15.137 1.481.411.333.274.499.68.499 1.217 0 .285-.08.538-.241.759-.16.218-.38.387-.658.507.328.092.586.269.774.529.192.257.287.564.287.922 0 .548-.176.979-.528 1.292-.352.313-.85.47-1.493.47h-2.102Zm.8-2.856v2.197h1.318c.371 0 .665-.096.878-.29.216-.195.325-.463.325-.804 0-.736-.397-1.103-1.19-1.103h-1.332Zm0-.646h1.206c.35 0 .628-.088.836-.264.21-.177.316-.416.316-.718 0-.335-.097-.578-.29-.73-.195-.153-.49-.23-.887-.23h-1.182v1.942Zm8.663-1.942H91.55v5.444h-.794V25.61h-1.943v-.663h4.684v.663Zm5.527 2.588c0 .598-.1 1.12-.3 1.568-.2.445-.483.785-.848 1.02a2.333 2.333 0 0 1-1.282.352c-.477 0-.9-.118-1.268-.353a2.367 2.367 0 0 1-.862-1.01c-.202-.44-.306-.947-.311-1.523v-.44c0-.587.1-1.106.303-1.556.202-.45.488-.794.857-1.032a2.29 2.29 0 0 1 1.273-.36c.486 0 .912.118 1.281.356.372.235.658.577.858 1.027.199.448.3.97.3 1.565v.386Zm-.795-.395c0-.724-.144-1.279-.433-1.665-.288-.388-.692-.582-1.21-.582-.505 0-.903.194-1.194.582-.288.386-.437.923-.445 1.61v.45c0 .701.145 1.254.437 1.656.294.4.697.6 1.21.6.516 0 .916-.189 1.199-.566.282-.38.428-.924.436-1.632v-.453Zm3.11-2.856 1.981 4.983 1.98-4.983h1.036v6.107h-.799v-2.378l.075-2.567-1.989 4.945h-.611l-1.985-4.932.079 2.554v2.378h-.799v-6.107h1.032Zm9.912 4.513h-2.538l-.57 1.594h-.823l2.312-6.107h.699l2.318 6.107h-.82l-.578-1.594Zm-2.297-.662h2.059l-1.031-2.857-1.028 2.857Zm8.24-3.188h-1.947v5.444h-.795V25.61h-1.943v-.663h4.685v.663Zm4.803-.663h.799v6.107h-.799V26.35l-2.983 4.706h-.803v-6.107h.803v4.706l2.983-4.706Zm5.447 1.64c0-.324-.118-.581-.353-.771-.233-.193-.562-.29-.986-.29-.355 0-.653.1-.895.298a.91.91 0 0 0-.358.73h-.798c0-.325.087-.615.262-.873.177-.257.424-.457.741-.6a2.478 2.478 0 0 1 1.048-.218c.677 0 1.202.154 1.577.462.374.305.561.73.561 1.275 0 .282-.085.54-.258.771a1.73 1.73 0 0 1-.719.55c.713.24 1.069.717 1.069 1.43 0 .548-.202.983-.607 1.304-.405.322-.946.483-1.623.483-.402 0-.768-.072-1.099-.214a1.782 1.782 0 0 1-.765-.617 1.629 1.629 0 0 1-.274-.948h.798c0 .322.127.59.379.806.252.212.573.318.961.318.436 0 .782-.102 1.04-.306a.976.976 0 0 0 .391-.81c0-.715-.44-1.08-1.318-1.094h-.75v-.662h.745c.405-.009.712-.101.919-.277.208-.176.312-.425.312-.747Zm5.382 2.873h-2.538l-.57 1.594h-.824l2.313-6.107h.699l2.317 6.107h-.819l-.578-1.594Zm-2.297-.662h2.06l-1.032-2.857-1.028 2.857Zm4.62-3.85h.803v5.447h2.988v-5.448h.798v5.431h.636l-.074 2.148h-.72v-1.472h-4.431v-6.107Zm10.111 0h.799v6.106h-.799V26.35l-2.982 4.706h-.803v-6.107h.803v4.706l2.982-4.706Zm5.511 6.106v-2.378h-1.398l-1.252 2.378h-.853l1.406-2.6c-.782-.31-1.173-.866-1.173-1.665 0-.582.188-1.034.566-1.355.38-.324.907-.487 1.581-.487h1.926v6.107h-.803Zm-2.472-4.265c0 .369.114.665.342.889.23.223.549.337.957.34h1.173v-2.41h-1.136c-.432 0-.764.103-.994.31-.228.207-.342.497-.342.869Zm10.705-1.179h-2.921v1.829h1.506c.633.008 1.126.172 1.481.49.356.319.533.752.533 1.3 0 .551-.179.99-.537 1.317-.357.328-.846.497-1.464.508h-2.322v-6.107h3.724v.663Zm-2.921 2.491v2.294h1.46c.397 0 .705-.106.924-.318.222-.213.333-.498.333-.856 0-.344-.106-.615-.32-.814-.211-.198-.512-.3-.903-.306h-1.494Zm8.506-3.154h.799v6.107h-.799V26.35l-2.983 4.706h-.803v-6.107h.803v4.706l2.983-4.706Zm5.448 1.64c0-.324-.118-.581-.354-.771-.233-.193-.561-.29-.986-.29-.355 0-.653.1-.894.298a.907.907 0 0 0-.358.73h-.799c0-.325.087-.615.262-.873.178-.257.424-.457.741-.6a2.478 2.478 0 0 1 1.048-.218c.677 0 1.203.154 1.577.462.374.305.562.73.562 1.275 0 .282-.086.54-.259.771a1.724 1.724 0 0 1-.719.55c.713.24 1.069.717 1.069 1.43 0 .548-.202.983-.607 1.304-.405.322-.946.483-1.623.483a2.74 2.74 0 0 1-1.098-.214 1.777 1.777 0 0 1-.765-.617 1.622 1.622 0 0 1-.275-.948h.798c0 .322.127.59.379.806.252.212.573.318.961.318.436 0 .783-.102 1.04-.306a.976.976 0 0 0 .391-.81c0-.715-.439-1.08-1.318-1.094h-.749v-.662h.744c.405-.009.712-.101.92-.277.208-.176.312-.425.312-.747Zm6.691 4.467h-.803v-2.823h-3.053v2.823h-.799v-6.107h.799v2.626h3.053v-2.626h.803v6.107Zm4.928-2.823h-2.625v2.164h3.049v.659h-3.848v-6.107h3.807v.663h-3.008v1.963h2.625v.658Zm5.96.885c-.075.646-.312 1.145-.712 1.497-.396.35-.925.525-1.585.525-.715 0-1.289-.259-1.722-.776-.43-.517-.645-1.21-.645-2.076V27.7c0-.568.1-1.067.3-1.498.202-.43.488-.76.857-.99a2.352 2.352 0 0 1 1.281-.348c.644 0 1.16.182 1.548.546.388.36.614.86.678 1.501h-.803c-.069-.486-.221-.839-.454-1.057-.23-.218-.553-.327-.969-.327-.51 0-.911.19-1.203.57-.288.38-.432.922-.432 1.624v.59c0 .664.138 1.19.412 1.582.275.392.659.587 1.152.587.444 0 .784-.1 1.02-.302.238-.204.396-.558.474-1.06h.803Zm4.524.344h-2.538l-.57 1.594h-.824l2.314-6.107h.699l2.317 6.107h-.82l-.578-1.594Zm-2.296-.662h2.059l-1.032-2.857-1.027 2.857Z" fill="#C9CBCF"/><path d="M79.078 3.582h6.331v1.794h-4.294v3.848h3.34v1.813h-3.34v6.142h-2.037V3.582Zm11.649 13.782c-.869 0-1.64-.197-2.313-.592a4.095 4.095 0 0 1-1.56-1.61 4.666 4.666 0 0 1-.55-2.256c0-.814.178-1.56.532-2.239a4.096 4.096 0 0 1 1.56-1.61c.673-.394 1.45-.591 2.33-.591.882 0 1.652.197 2.313.592a3.963 3.963 0 0 1 1.541 1.61c.368.678.551 1.424.551 2.238 0 .826-.183 1.579-.55 2.257a4.09 4.09 0 0 1-1.56 1.61c-.661.394-1.425.591-2.294.591Zm.055-1.628c.71 0 1.266-.265 1.67-.795.416-.53.624-1.196.624-1.998s-.22-1.474-.661-2.017c-.44-.555-1.021-.832-1.743-.832-.698 0-1.26.271-1.689.814-.415.543-.624 1.22-.624 2.035 0 .79.227 1.455.68 1.998.452.53 1.034.795 1.743.795Zm6.41-7.048h1.983v1.665a2.896 2.896 0 0 1 .954-1.37 2.374 2.374 0 0 1 1.505-.517c.391 0 .661.037.807.11l-.275 2.017c-.11-.074-.349-.11-.716-.11-.574 0-1.101.184-1.578.554-.465.37-.697.962-.697 1.776v4.366h-1.982V8.688Zm7.385 1.628h-1.487V8.688h1.487v-3.46l2-.444v3.904h1.945v1.628h-1.945v6.863h-2v-6.863Zm9.538 7.048c-1.003 0-1.841-.197-2.514-.592-.673-.407-1.168-.943-1.486-1.61a5.164 5.164 0 0 1-.477-2.22c0-.9.183-1.689.55-2.367a3.878 3.878 0 0 1 1.56-1.554c.661-.37 1.407-.555 2.239-.555 1.297 0 2.257.364 2.881 1.091.637.716.954 1.727.954 3.034 0 .333-.018.679-.055 1.036h-6.056c.135.753.398 1.295.79 1.628.403.333.96.5 1.669.5.588 0 1.071-.05 1.45-.148.38-.099.728-.234 1.046-.407l.606 1.424c-.306.198-.722.37-1.248.518-.526.148-1.162.222-1.909.222Zm1.781-5.124c.012-.765-.153-1.301-.496-1.61-.343-.32-.832-.48-1.468-.48-1.285 0-2.025.696-2.221 2.09h4.185Zm6.059.536-2.954-4.088h2.349l1.725 2.627 1.633-2.627h2.404l-2.973 3.977 3.23 4.514h-2.276l-2-2.997-1.908 2.997h-2.386l3.156-4.403Zm14.67 4.588c-.734 0-1.462-.13-2.184-.388-.722-.26-1.241-.549-1.56-.87l.973-1.757c.257.234.654.48 1.192.74.551.247 1.077.37 1.579.37.649 0 1.174-.154 1.578-.463.416-.308.624-.733.624-1.276 0-.42-.11-.783-.33-1.092a2.795 2.795 0 0 0-.808-.758c-.318-.21-.771-.463-1.358-.759-.697-.345-1.174-.604-1.431-.777-1.187-.801-1.78-1.911-1.78-3.33 0-1.171.385-2.065 1.156-2.682.77-.63 1.743-.944 2.918-.944 1.26 0 2.33.364 3.211 1.092l-.973 1.683c-.232-.246-.562-.456-.991-.629a3.253 3.253 0 0 0-1.339-.277c-.612 0-1.095.142-1.45.425-.342.272-.514.679-.514 1.221 0 .383.11.728.331 1.036.22.296.495.555.825.777.343.222.802.494 1.377.814.55.309.972.555 1.266.74.294.173.569.383.826.63.355.32.642.702.862 1.146.22.444.331.932.331 1.462 0 .826-.19 1.53-.569 2.109a3.44 3.44 0 0 1-1.542 1.313c-.648.296-1.388.444-2.22.444Zm10.394 0c-1.004 0-1.841-.197-2.514-.592-.673-.407-1.169-.943-1.487-1.61a5.164 5.164 0 0 1-.477-2.22c0-.9.184-1.689.551-2.367a3.875 3.875 0 0 1 1.559-1.554c.661-.37 1.408-.555 2.239-.555 1.297 0 2.258.364 2.881 1.091.637.716.955 1.727.955 3.034 0 .333-.019.679-.055 1.036h-6.056c.134.753.398 1.295.789 1.628.404.333.96.5 1.67.5.587 0 1.07-.05 1.45-.148a4.62 4.62 0 0 0 1.046-.407l.605 1.424c-.306.198-.721.37-1.248.518-.526.148-1.162.222-1.908.222Zm1.78-5.124c.012-.765-.153-1.301-.496-1.61-.342-.32-.831-.48-1.468-.48-1.284 0-2.024.696-2.22 2.09h4.184Zm3.949-3.552h1.982v1.665a2.893 2.893 0 0 1 .955-1.37c.44-.344.942-.517 1.504-.517.392 0 .661.037.808.11l-.275 2.017c-.111-.074-.349-.11-.716-.11-.575 0-1.101.184-1.578.554-.465.37-.698.962-.698 1.776v4.366h-1.982V8.688Zm5.311 0h2.257l1.817 3.83.587 1.535.588-1.536 1.798-3.83h2.202l-4.423 8.492h-.385l-4.441-8.491Zm10.662 0h2.056v8.491h-2.056V8.688Zm1.01-1.591c-.38 0-.698-.13-.955-.389a1.311 1.311 0 0 1-.385-.962c0-.345.128-.64.385-.888.257-.246.575-.37.955-.37a1.3 1.3 0 0 1 .935.37c.257.247.386.543.386.888 0 .383-.129.703-.386.962a1.232 1.232 0 0 1-.935.389Zm7.717 10.267c-.832 0-1.585-.178-2.257-.536a4.13 4.13 0 0 1-1.579-1.573c-.391-.69-.587-1.498-.587-2.423 0-.876.177-1.64.532-2.294a3.816 3.816 0 0 1 1.524-1.536c.66-.357 1.419-.536 2.275-.536.648 0 1.205.086 1.67.259.477.16.85.364 1.12.61l-.881 1.61c-.514-.518-1.095-.777-1.744-.777-.783 0-1.383.24-1.798.721-.404.481-.606 1.123-.606 1.924 0 .913.208 1.622.624 2.128.428.506 1.021.758 1.78.758.379 0 .746-.055 1.101-.166.367-.111.649-.24.845-.389l.715 1.406c-.269.21-.649.401-1.138.574-.477.16-1.009.24-1.596.24Zm8.603 0c-1.003 0-1.841-.197-2.514-.592-.673-.407-1.168-.943-1.486-1.61a5.15 5.15 0 0 1-.477-2.22c0-.9.183-1.689.55-2.367a3.872 3.872 0 0 1 1.56-1.554c.661-.37 1.407-.555 2.239-.555 1.296 0 2.257.364 2.881 1.091.636.716.954 1.727.954 3.034 0 .333-.018.679-.055 1.036h-6.056c.135.753.398 1.295.789 1.628.404.333.961.5 1.67.5.588 0 1.071-.05 1.45-.148a4.62 4.62 0 0 0 1.046-.407l.606 1.424c-.306.198-.722.37-1.248.518-.526.148-1.163.222-1.909.222Zm1.78-5.124c.012-.765-.153-1.301-.495-1.61-.343-.32-.832-.48-1.468-.48-1.285 0-2.025.696-2.221 2.09h4.184Z" fill="#fff"/><path d="M79.079 3.581v-.198h-.197v.198h.197Zm6.33 0h.197v-.198h-.196v.198Zm0 1.795v.198h.197v-.198h-.196Zm-4.294 0v-.198h-.196v.198h.197Zm0 3.848h-.196v.198h.197v-.198Zm3.34 0h.197v-.198h-.197v.198Zm0 1.813v.198h.197v-.198h-.197Zm-3.34 0v-.198h-.196v.198h.197Zm0 6.142v.198h.197v-.198h-.197Zm-2.036 0h-.197v.198h.197v-.198Zm0-13.4h6.33v-.396h-6.33v.397Zm6.134-.198v1.795h.393V3.58h-.393Zm.197 1.597h-4.294v.396h4.294v-.396Zm-4.491.198v3.848h.393V5.376h-.393Zm.197 4.046h3.34v-.396h-3.34v.396Zm3.143-.198v1.813h.393V9.224h-.393Zm.196 1.615h-3.34v.396h3.34v-.396Zm-3.536.198v6.142h.393v-6.142h-.393Zm.197 5.944h-2.037v.396h2.037v-.396Zm-1.84.198V3.58h-.394v13.6h.393Zm9.14-.407.098-.171-.099.17Zm-1.56-1.61-.173.095.172-.095Zm-.019-4.495-.173-.095-.001.003.174.092Zm1.56-1.61-.099-.17.099.17Zm4.643 0-.1.17v.002l.1-.172Zm1.541 1.61-.174.092.001.003.173-.095Zm0 4.495-.173-.095.173.095Zm-1.56 1.61-.098-.171h-.002l.1.17Zm-.568-1.832-.155-.123-.001.003.156.12Zm-.037-4.014-.154.124.001.001.153-.125Zm-3.432-.019-.154-.123-.002.002.156.121Zm.055 4.033-.15.128v.002l.15-.13Zm1.689 2.226c-.839 0-1.575-.19-2.214-.565l-.198.342c.706.415 1.512.62 2.412.62v-.397Zm-2.214-.565a3.892 3.892 0 0 1-1.486-1.533l-.346.19c.385.71.931 1.273 1.634 1.685l.198-.342Zm-1.486-1.533a4.468 4.468 0 0 1-.526-2.163h-.394c0 .857.191 1.643.575 2.352l.345-.19Zm-.526-2.163c0-.783.17-1.498.509-2.146l-.348-.184a4.958 4.958 0 0 0-.555 2.33h.394Zm.508-2.143a3.892 3.892 0 0 1 1.486-1.533l-.198-.343a4.294 4.294 0 0 0-1.634 1.686l.346.19Zm1.486-1.533c.639-.375 1.38-.565 2.232-.565v-.397c-.911 0-1.723.205-2.43.62l.198.342Zm2.232-.565c.85 0 1.585.19 2.212.564l.2-.341c-.695-.415-1.502-.62-2.412-.62v.397Zm2.213.565a3.76 3.76 0 0 1 1.466 1.53l.348-.184a4.163 4.163 0 0 0-1.616-1.689l-.198.343Zm1.467 1.533c.351.647.527 1.36.527 2.143h.394a4.83 4.83 0 0 0-.575-2.333l-.346.19Zm.527 2.143c0 .796-.176 1.515-.527 2.163l.346.19c.384-.71.575-1.495.575-2.353h-.394Zm-.527 2.163a3.894 3.894 0 0 1-1.485 1.533l.198.342a4.292 4.292 0 0 0 1.633-1.686l-.346-.19ZM92.921 16.6c-.626.375-1.356.565-2.193.565v.396c.899 0 1.698-.204 2.394-.62l-.2-.34Zm-2.138-.667c.765 0 1.381-.29 1.826-.873l-.312-.241c-.364.477-.86.718-1.514.718v.396Zm1.824-.87c.448-.572.666-1.284.666-2.122h-.393c0 .766-.198 1.386-.582 1.875l.309.246Zm.666-2.122c0-.84-.232-1.559-.705-2.142l-.305.251c.408.503.617 1.129.617 1.891h.393Zm-.704-2.14c-.479-.603-1.117-.907-1.896-.907v.397c.663 0 1.187.251 1.589.758l.307-.248Zm-1.896-.907c-.757 0-1.377.298-1.843.889l.308.247c.39-.495.896-.74 1.535-.74v-.396Zm-1.845.891c-.447.584-.664 1.307-.664 2.156h.393c0-.778.198-1.412.583-1.913l-.312-.243Zm-.664 2.156c0 .83.239 1.543.725 2.126l.3-.255c-.42-.503-.632-1.122-.632-1.87h-.393Zm.726 2.128c.49.575 1.127.864 1.893.864v-.396c-.654 0-1.18-.241-1.595-.727l-.298.259Zm8.303-6.383V8.49h-.196v.198h.196Zm1.982 0h.197V8.49h-.197v.198Zm0 1.665h-.197l.383.066-.186-.066Zm.954-1.369.121.157-.121-.157Zm2.313-.407.194.027.02-.14-.126-.064-.088.177Zm-.276 2.017-.108.165.26.175.043-.313-.195-.027Zm-2.293.444-.12-.157-.002.001.121.156Zm-.698 6.142v.198h.197v-.198h-.197Zm-1.982 0h-.196v.198h.196v-.198Zm0-8.293h1.982v-.397h-1.982v.397Zm1.785-.199v1.665h.394V8.687h-.394Zm.383 1.73a2.69 2.69 0 0 1 .889-1.277l-.241-.313c-.473.37-.812.86-1.02 1.46l.372.13Zm.889-1.277a2.177 2.177 0 0 1 1.384-.476v-.397c-.606 0-1.15.187-1.625.56l.241.313Zm1.384-.476c.392 0 .619.039.72.09l.176-.355c-.193-.097-.505-.132-.896-.132v.397Zm.613-.115-.275 2.017.389.054.275-2.017-.389-.054Zm.028 1.879a.847.847 0 0 0-.34-.114 3.238 3.238 0 0 0-.484-.03v.396c.178 0 .318.01.424.026.111.017.164.04.183.052l.217-.33Zm-.824-.144c-.621 0-1.189.2-1.698.596l.24.314a2.32 2.32 0 0 1 1.458-.514v-.396Zm-1.7.597c-.528.42-.773 1.08-.773 1.932h.394c0-.777.22-1.3.622-1.62l-.243-.312Zm-.773 1.932v4.366h.394v-4.366h-.394Zm.197 4.168h-1.982v.396h1.982v-.396Zm-1.785.198V8.687h-.393v8.492h.393Zm7.188-6.864h.196v-.198h-.196v.198Zm-1.487 0h-.196v.199h.196v-.199Zm0-1.628V8.49h-.196v.198h.196Zm1.487 0v.199h.196v-.199h-.196Zm0-3.46-.043-.193-.154.035v.159h.197Zm2-.443h.197v-.247l-.24.053.043.194Zm0 3.903h-.197v.199h.197v-.199Zm1.945 0h.197V8.49h-.197v.198Zm0 1.628v.199h.197v-.199h-.197Zm-1.945 0v-.198h-.197v.198h.197Zm0 6.864v.198h.197v-.198h-.197Zm-2 0h-.197v.198h.197v-.198Zm0-7.062h-1.487v.397h1.487v-.397Zm-1.29.198V8.687h-.393v1.628h.393Zm-.197-1.43h1.487V8.49h-1.487v.397Zm1.683-.198v-3.46h-.393v3.46h.393Zm-.154-3.266 2-.444-.085-.387-2 .444.085.387Zm1.761-.637v3.903h.394V4.784h-.394Zm.197 4.102h1.945v-.397h-1.945v.397Zm1.749-.199v1.628h.393V8.687h-.393Zm.196 1.43h-1.945v.397h1.945v-.397Zm-2.142.198v6.864h.394v-6.864h-.394Zm.197 6.666h-2v.396h2v-.396Zm-1.804.198v-6.864h-.393v6.864h.393Zm6.828-.407-.101.17.002.001.099-.171Zm-1.487-1.61-.177.085v.001l.177-.086Zm.074-4.588-.171-.097-.002.002.173.095Zm1.559-1.554.094.175.002-.001-.096-.174Zm5.12.537-.148.13.002.002.146-.132Zm.9 4.07v.198h.177l.019-.178-.196-.02Zm-6.056 0v-.198h-.236l.042.233.194-.035Zm.789 1.628-.127.151.002.002.125-.153Zm3.12.351-.05-.191.05.191Zm1.046-.407.181-.078-.085-.199-.189.103.093.174Zm.605 1.425.106.167.141-.09-.066-.155-.181.078Zm-1.248.518-.052-.191.052.19Zm-.128-4.903v.199h.193l.003-.195-.196-.004Zm-.496-1.61-.133.146.002.003.131-.148Zm-3.688 1.61-.195-.027-.031.226h.226v-.199Zm2.404 4.927c-.978 0-1.78-.193-2.415-.565l-.198.342c.71.417 1.585.62 2.613.62v-.397Zm-2.413-.564c-.643-.389-1.11-.897-1.41-1.526l-.355.172c.336.704.859 1.268 1.563 1.694l.202-.34Zm-1.41-1.524a4.961 4.961 0 0 1-.458-2.136h-.394c0 .83.165 1.598.497 2.305l.355-.17Zm-.458-2.136c0-.872.177-1.628.527-2.273l-.346-.19c-.385.712-.575 1.535-.575 2.463h.394Zm.525-2.27a3.674 3.674 0 0 1 1.482-1.477l-.187-.35a4.073 4.073 0 0 0-1.637 1.632l.342.195Zm1.484-1.478c.629-.352 1.342-.53 2.143-.53v-.397c-.862 0-1.641.192-2.334.58l.191.347Zm2.143-.53c1.262 0 2.159.353 2.733 1.023l.297-.26c-.673-.785-1.697-1.16-3.03-1.16v.397Zm2.735 1.025c.594.668.904 1.626.904 2.902h.393c0-1.338-.325-2.403-1.004-3.166l-.293.264Zm.904 2.902c0 .326-.018.664-.054 1.016l.392.04c.037-.364.055-.716.055-1.056h-.393Zm.142.838h-6.056v.396h6.056v-.396Zm-6.25.233c.139.777.417 1.37.856 1.744l.254-.303c-.343-.291-.592-.783-.723-1.511l-.387.07Zm.858 1.746c.45.371 1.056.545 1.795.545v-.397c-.68 0-1.188-.16-1.546-.454l-.249.306Zm1.795.545c.596 0 1.098-.05 1.499-.155l-.099-.383c-.357.092-.822.141-1.4.141v.397Zm1.499-.155a4.821 4.821 0 0 0 1.09-.424l-.186-.35a4.438 4.438 0 0 1-1.003.39l.099.384Zm.816-.52.605 1.424.362-.156-.605-1.425-.362.156Zm.681 1.179c-.284.183-.68.349-1.195.494l.105.382c.537-.151.973-.33 1.301-.542l-.211-.334Zm-1.195.494c-.504.142-1.122.215-1.856.215v.396c.758 0 1.413-.075 1.961-.23l-.105-.381Zm.12-4.708c.013-.786-.154-1.395-.561-1.761l-.262.296c.279.25.442.715.43 1.458l.393.007Zm-.558-1.758c-.39-.366-.934-.534-1.602-.534v.396c.605 0 1.04.152 1.335.428l.267-.29Zm-1.602-.534c-.678 0-1.237.184-1.653.576-.413.389-.66.96-.762 1.685l.389.055c.095-.669.315-1.143.642-1.45.324-.306.778-.47 1.384-.47V9.95Zm-2.22 2.487h4.184v-.397h-4.184v.397Zm10.244.338.16.116.083-.117-.084-.116-.159.117Zm-2.954-4.089V8.49h-.387l.228.315.159-.117Zm2.349 0 .164-.109-.059-.089h-.105v.198Zm1.725 2.627-.165.11.169.256.162-.26-.166-.106Zm1.633-2.627V8.49h-.109l-.058.093.167.105Zm2.404 0 .157.12.237-.318h-.394v.198Zm-2.973 3.978-.157-.12-.087.117.084.119.16-.116Zm3.23 4.514v.198h.384l-.225-.314-.159.116Zm-2.276 0-.163.11.059.088h.104v-.198Zm-2-2.997.163-.11-.167-.25-.162.253.166.107Zm-1.908 2.997v.198h.106l.059-.091-.165-.107Zm-2.386 0-.16-.116-.225.314h.385v-.198Zm3.315-4.52L119.16 8.57l-.317.233 2.954 4.089.318-.234Zm-3.113-3.773h2.349v-.397h-2.349v.397Zm2.184-.09 1.725 2.628.329-.219-1.725-2.627-.329.219Zm2.056 2.624 1.634-2.627-.334-.21-1.633 2.626.333.21Zm1.467-2.534h2.404v-.397h-2.404v.397Zm2.247-.318-2.973 3.978.314.238 2.973-3.977-.314-.239Zm-2.976 4.213 3.23 4.514.319-.232-3.23-4.514-.319.232Zm3.39 4.2h-2.276v.396h2.276v-.396Zm-2.113.087-2-2.997-.326.222 2 2.997.326-.222Zm-2.329-2.993-1.908 2.997.331.214 1.908-2.997-.331-.214Zm-1.742 2.906H118.8v.396h2.386v-.396Zm-2.227.314 3.157-4.403-.32-.232-3.156 4.403.319.232Zm15.482-.32.066-.186-.066.186Zm-1.56-.87-.171-.096-.072.131.104.106.139-.14Zm.973-1.757.132-.147-.183-.167-.121.218.172.096Zm1.193.74-.085.18.005.002.08-.182Zm3.156-.092-.116-.16-.002.002.118.158Zm.294-2.368-.159.116.159-.116Zm-.808-.759-.107.166.004.003.103-.169Zm-1.358-.758.089-.177-.001-.001-.088.178Zm-1.431-.777-.109.165.109-.165Zm-.624-6.013.123.156.001-.002-.124-.154Zm6.129.148.171.1.084-.146-.129-.107-.126.153Zm-.972 1.684-.142.136.18.192.132-.228-.17-.1Zm-.991-.63-.08.182.007.003.073-.184Zm-2.79.149.122.156h.001l-.123-.156Zm-.183 2.257-.159.116.002.003.157-.12Zm.826.777-.109.165.003.002.106-.167Zm1.376.814.096-.173-.096.173Zm1.266.74-.104.168.005.003.099-.171Zm.826.629-.136.144.005.004.131-.148Zm.863 1.147.176-.089-.176.089Zm-.239 3.57-.164-.109-.001.003.165.106Zm-1.541 1.314-.08-.181h-.001l.081.18Zm-2.221.246c-.71 0-1.416-.126-2.118-.377l-.131.373c.742.266 1.492.4 2.249.4v-.396Zm-2.118-.377c-.711-.256-1.198-.533-1.486-.823l-.279.28c.349.351.901.653 1.634.916l.131-.373Zm-1.454-.587.973-1.757-.344-.193-.972 1.757.343.194Zm.669-1.707c.278.254.696.51 1.24.772l.17-.357c-.532-.256-.91-.493-1.146-.709l-.264.294Zm1.245.775c.571.255 1.125.387 1.658.387v-.397c-.469 0-.968-.115-1.498-.353l-.16.363Zm1.658.387c.68 0 1.251-.162 1.698-.503l-.238-.316c-.362.276-.842.422-1.46.422v.397Zm1.695-.501c.469-.348.704-.834.704-1.437h-.393c0 .483-.181.848-.544 1.117l.233.32Zm.704-1.437c0-.456-.121-.861-.367-1.207l-.319.232c.193.27.293.593.293.975h.393Zm-.367-1.207c-.236-.33-.524-.6-.864-.811l-.207.337c.296.184.546.418.752.706l.319-.232Zm-.859-.809a14.458 14.458 0 0 0-1.378-.77l-.176.355c.584.295 1.029.544 1.338.747l.216-.332Zm-1.379-.77c-.698-.345-1.165-.6-1.41-.764l-.218.33c.269.18.757.445 1.454.79l.174-.356Zm-1.41-.764c-1.133-.765-1.692-1.814-1.692-3.165h-.394c0 1.486.628 2.657 1.868 3.495l.218-.33Zm-1.692-3.165c0-1.124.367-1.955 1.082-2.527l-.245-.31c-.826.66-1.231 1.617-1.231 2.837h.394Zm1.083-2.529c.729-.595 1.656-.899 2.794-.899V3.18c-1.211 0-2.229.325-3.041.987l.247.308Zm2.794-.899c1.22 0 2.245.351 3.087 1.047l.25-.307c-.921-.76-2.036-1.136-3.337-1.136v.396Zm3.042.794-.973 1.683.34.2.973-1.684-.34-.2Zm-.66 1.646c-.258-.273-.616-.497-1.061-.676l-.146.368c.411.166.714.362.922.581l.285-.273Zm-1.054-.673a3.462 3.462 0 0 0-1.42-.295v.397c.452 0 .871.087 1.26.26l.16-.362Zm-1.42-.295c-.64 0-1.172.149-1.572.469l.245.31c.309-.247.744-.382 1.327-.382v-.397Zm-1.571.468c-.401.318-.589.79-.589 1.377h.393c0-.498.155-.84.439-1.065l-.243-.312Zm-.589 1.377c0 .424.123.81.368 1.152l.319-.232a1.542 1.542 0 0 1-.294-.92h-.393Zm.37 1.155c.234.315.527.59.874.823l.218-.33a3.15 3.15 0 0 1-.778-.731l-.314.238Zm.877.825c.348.225.81.499 1.387.82l.191-.347a24.117 24.117 0 0 1-1.365-.807l-.213.334Zm1.387.82c.549.308.968.553 1.257.735l.208-.336a29.49 29.49 0 0 0-1.274-.745l-.191.346Zm1.262.738c.28.165.544.365.79.601l.271-.287a4.666 4.666 0 0 0-.862-.656l-.199.342Zm.794.606c.336.303.608.665.818 1.088l.352-.178a4.026 4.026 0 0 0-.907-1.206l-.263.296Zm.818 1.088c.206.414.309.87.309 1.372h.394a3.44 3.44 0 0 0-.351-1.55l-.352.178Zm.309 1.372c0 .795-.181 1.459-.536 2l.329.219c.404-.618.601-1.36.601-2.219h-.394Zm-.537 2.003a3.253 3.253 0 0 1-1.456 1.239l.159.362a3.631 3.631 0 0 0 1.628-1.388l-.331-.213Zm-1.457 1.24c-.619.282-1.331.426-2.14.426v.396c.855 0 1.624-.152 2.302-.462l-.162-.36Zm5.74.032-.101.17.002.001.099-.171Zm-1.486-1.61-.178.085.001.001.177-.086Zm.073-4.588-.171-.097-.001.002.172.095Zm1.56-1.554.093.175.002-.001-.095-.174Zm5.12.537-.149.13.003.002.146-.132Zm.899 4.07v.198h.177l.018-.178-.195-.02Zm-6.056 0v-.198h-.235l.042.233.193-.035Zm.789 1.628-.127.151.003.002.124-.153Zm3.12.351-.049-.191.049.191Zm1.046-.407.181-.078-.085-.199-.189.103.093.174Zm.606 1.425.106.167.14-.09-.066-.155-.18.078Zm-1.248.518-.053-.191.053.19Zm-.129-4.903v.199h.194l.003-.195-.197-.004Zm-.495-1.61-.134.146.003.003.131-.148Zm-3.689 1.61-.195-.027-.032.226h.227v-.199Zm2.404 4.927c-.978 0-1.78-.193-2.415-.565l-.198.342c.71.417 1.585.62 2.613.62v-.397Zm-2.413-.564c-.642-.389-1.11-.897-1.411-1.526l-.353.172c.335.704.858 1.268 1.562 1.694l.202-.34Zm-1.41-1.524a4.961 4.961 0 0 1-.458-2.136h-.393c0 .83.165 1.598.496 2.305l.355-.17Zm-.458-2.136c0-.872.178-1.628.526-2.273l-.344-.19c-.386.712-.575 1.535-.575 2.463h.393Zm.525-2.27a3.68 3.68 0 0 1 1.482-1.477l-.186-.35a4.063 4.063 0 0 0-1.638 1.632l.342.195Zm1.484-1.478c.629-.352 1.341-.53 2.144-.53v-.397c-.862 0-1.642.192-2.335.58l.191.347Zm2.144-.53c1.261 0 2.157.353 2.732 1.023l.298-.26c-.674-.785-1.698-1.16-3.03-1.16v.397Zm2.735 1.025c.593.668.903 1.626.903 2.902h.394c0-1.338-.326-2.403-1.005-3.166l-.292.264Zm.903 2.902c0 .326-.017.664-.054 1.016l.391.04c.038-.364.057-.716.057-1.056h-.394Zm.142.838h-6.056v.396h6.056v-.396Zm-6.249.233c.139.777.415 1.37.855 1.744l.254-.303c-.343-.291-.592-.783-.723-1.511l-.386.07Zm.858 1.746c.449.371 1.055.545 1.794.545v-.397c-.68 0-1.187-.16-1.545-.454l-.249.306Zm1.794.545c.597 0 1.098-.05 1.499-.155l-.098-.383c-.357.092-.823.141-1.401.141v.397Zm1.499-.155a4.821 4.821 0 0 0 1.09-.424l-.186-.35a4.448 4.448 0 0 1-1.002.39l.098.384Zm.816-.52.606 1.424.361-.156-.605-1.425-.362.156Zm.68 1.179c-.283.183-.679.349-1.194.494l.106.382c.536-.151.972-.33 1.301-.542l-.213-.334Zm-1.194.494c-.504.142-1.121.215-1.856.215v.396c.758 0 1.413-.075 1.962-.23l-.106-.381Zm.121-4.708c.012-.786-.155-1.395-.561-1.761l-.262.296c.279.25.441.715.43 1.458l.393.007Zm-.559-1.758c-.39-.366-.934-.534-1.601-.534v.396c.605 0 1.039.152 1.334.428l.267-.29Zm-1.601-.534c-.679 0-1.238.184-1.653.576-.414.389-.661.96-.763 1.685l.39.055c.093-.669.314-1.143.641-1.45.325-.306.778-.47 1.385-.47V9.95Zm-2.221 2.487h4.184v-.397h-4.184v.397Zm8.134-3.75v-.199h-.197v.198h.197Zm1.982 0h.196v-.199h-.196v.198Zm0 1.664h-.197l.383.066-.186-.066Zm.954-1.369.12.157-.12-.157Zm2.312-.407.195.027.019-.14-.126-.064-.088.177Zm-.275 2.017-.109.165.261.175.043-.313-.195-.027Zm-2.294.444-.12-.157-.002.001.122.156Zm-.697 6.142v.198h.196v-.198h-.196Zm-1.982 0h-.197v.198h.197v-.198Zm0-8.293h1.982v-.397h-1.982v.397Zm1.785-.199v1.665h.393V8.687h-.393Zm.383 1.73c.184-.533.48-.957.888-1.277l-.241-.313c-.472.37-.812.86-1.019 1.46l.372.13Zm.888-1.277a2.182 2.182 0 0 1 1.385-.476v-.397c-.607 0-1.151.187-1.626.56l.241.313Zm1.385-.476c.392 0 .618.039.719.09l.176-.355c-.192-.097-.504-.132-.895-.132v.397Zm.612-.115-.275 2.017.39.054.275-2.017-.39-.054Zm.029 1.879a.852.852 0 0 0-.34-.114 3.243 3.243 0 0 0-.485-.03v.396c.178 0 .319.01.425.026.11.017.163.04.182.052l.218-.33Zm-.825-.144c-.62 0-1.188.2-1.698.596l.24.314a2.32 2.32 0 0 1 1.458-.514v-.396Zm-1.7.597c-.528.42-.772 1.08-.772 1.932h.393c0-.777.221-1.3.623-1.62l-.244-.312Zm-.772 1.932v4.366h.393v-4.366h-.393Zm.197 4.168h-1.982v.396h1.982v-.396Zm-1.786.198V8.687h-.393v8.492h.393Zm5.114-8.492V8.49h-.326l.152.29.174-.092Zm2.258 0 .177-.085-.054-.113h-.123v.198Zm1.816 3.83.184-.071-.003-.008-.004-.007-.177.086Zm.588 1.535-.184.072.184.48.183-.48-.183-.072Zm.587-1.535-.178-.085-.003.007-.003.007.184.07Zm1.798-3.83V8.49h-.124l-.053.114.177.084Zm2.202 0 .174.093.152-.29h-.326v.197Zm-4.422 8.492v.198h.118l.055-.106-.173-.092Zm-.386 0-.174.092.056.106h.118v-.198Zm-4.441-8.293h2.258v-.397h-2.258v.397Zm2.08-.113 1.817 3.83.354-.172-1.816-3.83-.355.172Zm1.811 3.815.587 1.536.367-.143-.587-1.535-.367.142Zm.954 1.536.587-1.536-.367-.142-.587 1.535.367.143Zm.581-1.522 1.799-3.83-.355-.17-1.799 3.83.355.17Zm1.621-3.716h2.202v-.397h-2.202v.397Zm2.028-.29-4.423 8.49.348.185 4.423-8.491-.348-.185Zm-4.248 8.385h-.386v.396h.386v-.396Zm-.212.105-4.441-8.491-.348.185 4.441 8.491.348-.184Zm6.048-8.399V8.49h-.197v.198h.197Zm2.055 0h.197V8.49h-.197v.198Zm0 8.492v.198h.197v-.198h-.197Zm-2.055 0h-.197v.198h.197v-.198Zm.055-10.471.139-.14-.139.14Zm0-1.85.135.143-.135-.143Zm1.89 0-.136.143.136-.143Zm0 1.85-.139-.14-.003.003.142.137Zm-1.945 2.178h2.055v-.397h-2.055v.397Zm1.858-.199v8.492h.394V8.687h-.394Zm.197 8.294h-2.055v.396h2.055v-.396Zm-1.859.198V8.687h-.393v8.492h.393Zm.813-10.28c-.33 0-.597-.111-.815-.331l-.278.28c.295.298.664.447 1.093.447v-.397Zm-.815-.331a1.11 1.11 0 0 1-.328-.822h-.393c0 .432.147.804.443 1.102l.278-.28Zm-.328-.822a.99.99 0 0 1 .324-.745l-.271-.287c-.294.283-.446.63-.446 1.032h.393Zm.324-.745a1.13 1.13 0 0 1 .819-.315V4.29c-.426 0-.794.14-1.09.424l.271.287Zm.819-.315c.318 0 .581.105.8.315l.271-.287a1.497 1.497 0 0 0-1.071-.424v.396Zm.8.315a.99.99 0 0 1 .325.745h.393c0-.402-.152-.75-.447-1.032l-.271.287Zm.325.745c0 .332-.11.602-.328.822l.278.28c.295-.298.443-.67.443-1.102h-.393Zm-.331.825a1.038 1.038 0 0 1-.794.327v.397c.428 0 .794-.15 1.078-.45l-.284-.274Zm4.666 10.256-.096.174.004.002.092-.176Zm-1.578-1.572-.171.098v.002l.171-.1Zm-.055-4.718-.173-.096v.001l.173.095Zm1.523-1.535-.093-.175-.001.001.094.174Zm3.945-.278-.068.186.006.002.062-.188Zm1.12.61.172.097.075-.137-.115-.106-.132.147Zm-.881 1.61-.14.14.186.187.126-.23-.172-.097Zm-3.542-.055-.149-.13-.001.002.15.128Zm.019 4.051-.152.127.001.002.151-.129Zm2.881.592-.057-.19-.002.001.059.19Zm.844-.388.175-.09-.107-.21-.186.141.118.159Zm.716 1.406.12.157.129-.101-.074-.147-.175.09Zm-1.138.573.062.188h.003l-.065-.188Zm-1.597.043c-.803 0-1.524-.173-2.165-.514l-.184.35c.704.375 1.488.56 2.349.56v-.396Zm-2.162-.512a3.932 3.932 0 0 1-1.503-1.499l-.341.2A4.33 4.33 0 0 0 175.095 17l.191-.347Zm-1.503-1.497c-.371-.657-.561-1.43-.561-2.326h-.393c0 .954.202 1.797.613 2.522l.341-.196Zm-.561-2.326c0-.848.172-1.579.508-2.198l-.345-.19c-.373.687-.556 1.485-.556 2.388h.393Zm.507-2.197a3.626 3.626 0 0 1 1.446-1.458l-.188-.348a4.013 4.013 0 0 0-1.602 1.613l.344.193Zm1.445-1.457c.628-.34 1.353-.513 2.182-.513v-.397c-.884 0-1.675.185-2.368.56l.186.35Zm2.182-.513c.632 0 1.164.084 1.602.246l.136-.372c-.492-.182-1.073-.27-1.738-.27v.396Zm1.608.248c.46.155.806.347 1.05.57l.264-.294c-.296-.27-.696-.486-1.19-.652l-.124.376Zm1.01.327-.881 1.61.344.191.881-1.61-.344-.19Zm-.57 1.565c-.546-.55-1.176-.835-1.882-.835v.397c.589 0 1.122.233 1.603.719l.279-.28Zm-1.882-.835c-.825 0-1.485.256-1.948.79l.297.26c.37-.428.909-.653 1.651-.653v-.397Zm-1.949.792c-.442.526-.652 1.216-.652 2.052h.393c0-.768.193-1.36.559-1.796l-.3-.256Zm-.652 2.052c0 .941.214 1.701.669 2.254l.303-.253c-.378-.459-.579-1.117-.579-2.001h-.393Zm.67 2.256c.472.557 1.124.828 1.931.828V15.5c-.711 0-1.246-.235-1.631-.69l-.3.258Zm1.931.828c.398 0 .785-.058 1.159-.175l-.117-.379a3.467 3.467 0 0 1-1.042.158v.396Zm1.157-.175c.378-.114.684-.252.906-.42l-.236-.317c-.17.129-.427.25-.783.358l.113.38Zm.613-.488.716 1.406.35-.18-.716-1.407-.35.181Zm.77 1.159c-.246.192-.604.374-1.082.543l.13.375c.5-.177.9-.377 1.193-.604l-.241-.314Zm-1.079.542c-.455.153-.965.23-1.535.23v.397a5.18 5.18 0 0 0 1.658-.25l-.123-.377Zm4.555-.163-.102.17.003.001.099-.171Zm-1.487-1.61-.178.085.001.001.177-.086Zm.074-4.588-.172-.097-.001.002.173.095Zm1.559-1.554.094.175.001-.001-.095-.174Zm5.12.537-.148.13.002.002.146-.132Zm.9 4.07v.198h.177l.018-.178-.195-.02Zm-6.056 0v-.198h-.236l.042.233.194-.035Zm.789 1.628-.127.151.002.002.125-.153Zm3.12.351-.05-.191.05.191Zm1.046-.407.18-.078-.085-.199-.189.103.094.174Zm.605 1.425.106.167.141-.09-.067-.155-.18.078Zm-1.248.518-.053-.191.053.19Zm-.128-4.903v.199h.193l.003-.195-.196-.004Zm-.496-1.61-.134.146.003.003.131-.148Zm-3.688 1.61-.195-.027-.032.226h.227v-.199Zm2.404 4.927c-.979 0-1.78-.193-2.416-.565l-.197.342c.71.417 1.584.62 2.613.62v-.397Zm-2.413-.564c-.643-.389-1.111-.897-1.411-1.526l-.354.172c.336.704.859 1.268 1.562 1.694l.203-.34Zm-1.41-1.524a4.961 4.961 0 0 1-.458-2.136h-.394c0 .83.165 1.598.496 2.305l.356-.17Zm-.458-2.136c0-.872.177-1.628.526-2.273l-.345-.19c-.386.712-.575 1.535-.575 2.463h.394Zm.525-2.27a3.668 3.668 0 0 1 1.482-1.477l-.187-.35a4.075 4.075 0 0 0-1.638 1.632l.343.195Zm1.483-1.478c.629-.352 1.342-.53 2.144-.53v-.397c-.862 0-1.641.192-2.334.58l.19.347Zm2.144-.53c1.261 0 2.158.353 2.733 1.023l.297-.26c-.674-.785-1.697-1.16-3.03-1.16v.397Zm2.735 1.025c.593.668.904 1.626.904 2.902h.393c0-1.338-.326-2.403-1.004-3.166l-.293.264Zm.904 2.902c0 .326-.018.664-.054 1.016l.391.04c.037-.364.056-.716.056-1.056h-.393Zm.142.838h-6.056v.396h6.056v-.396Zm-6.25.233c.139.777.416 1.37.856 1.744l.253-.303c-.342-.291-.591-.783-.722-1.511l-.387.07Zm.858 1.746c.45.371 1.056.545 1.795.545v-.397c-.681 0-1.188-.16-1.546-.454l-.249.306Zm1.795.545c.596 0 1.097-.05 1.499-.155l-.099-.383c-.357.092-.822.141-1.4.141v.397Zm1.499-.155a4.821 4.821 0 0 0 1.09-.424l-.187-.35a4.43 4.43 0 0 1-1.002.39l.099.384Zm.816-.52.605 1.424.361-.156-.605-1.425-.361.156Zm.68 1.179c-.283.183-.679.349-1.195.494l.106.382c.536-.151.972-.33 1.301-.542l-.212-.334Zm-1.195.494c-.504.142-1.121.215-1.855.215v.396c.757 0 1.413-.075 1.961-.23l-.106-.381Zm.121-4.708c.013-.786-.155-1.395-.561-1.761l-.262.296c.279.25.442.715.43 1.458l.393.007Zm-.558-1.758c-.391-.366-.935-.534-1.602-.534v.396c.605 0 1.04.152 1.334.428l.268-.29Zm-1.602-.534c-.678 0-1.237.184-1.653.576-.413.389-.66.96-.762 1.685l.389.055c.094-.669.315-1.143.641-1.45.325-.306.778-.47 1.385-.47V9.95Zm-2.22 2.487h4.184v-.397h-4.184v.397Z" fill="#fff"/><path d="M0 33.036V2.643c14.419 0 18.68.33 38.997.33 1.831 0-3.168 5.837-4.588 6.277H6.882v4.955c20.317.33 18.993.33 22.939.33 1.31 0-1.966 4.956-4.26 6.608H6.88v8.59c0 2.378-4.587 2.972-6.881 3.303Z" fill="#E3E6EA"/><path d="M48.5 2.973c-3.932.529-5.352 4.405-5.57 6.277v.66h6.553c3.276 0 6.882 0 10.814-.33 3.517-.295 4.588-3.964 4.261-6.607H48.501ZM34.738 20.482c-2.24 0 2.62-5.946 4.916-6.277h22.612c1.31 0 1.857 1.762 1.966 2.643 0 5.066-.066 15.197-.328 15.197H31.79c-11.143 0-14.748.33-17.37 0-2.345-.296 1.64-5.396 3.933-6.277h39.325l.328-5.286H34.738Z" fill="#B7BFC9"/></svg>