<svg width="24" height="24" fill="none" xmlns="http://www.w3.org/2000/svg"><path fill-rule="evenodd" clip-rule="evenodd" d="M12 24c6.627 0 12-5.373 12-12S18.627 0 12 0 0 5.373 0 12s5.373 12 12 12Z" fill="#BDC7D5"/><path fill-rule="evenodd" clip-rule="evenodd" d="M9.8 17.5c-.389 0-.323-.147-.457-.517L8.2 13.221 17 8" fill="#E8EFF7"/><path fill-rule="evenodd" clip-rule="evenodd" d="M9.8 17.5c.3 0 .432-.137.6-.3l1.6-1.556-1.996-1.203" fill="#7C8A9C"/><path fill-rule="evenodd" clip-rule="evenodd" d="m10.004 14.441 4.836 3.573c.552.304.95.147 1.087-.512l1.969-9.277c.201-.808-.308-1.174-.836-.935L5.5 11.748c-.788.316-.784.756-.143.952l2.966.926 6.868-4.332c.324-.197.621-.091.377.125" fill="#E8EFF7"/></svg>