<svg width="24" height="24" fill="none" xmlns="http://www.w3.org/2000/svg"><path fill-rule="evenodd" clip-rule="evenodd" d="M0 12C0 5.373 5.373 0 12 0s12 5.373 12 12-5.373 12-12 12S0 18.627 0 12Z" fill="#BDC7D5"/><path fill-rule="evenodd" clip-rule="evenodd" d="M12.627 15.938s.231-.025.35-.15c.108-.114.104-.33.104-.33s-.014-1.007.462-1.156c.47-.146 1.073.974 1.713 1.405.483.326.85.254.85.254l1.71-.023s.893-.054.47-.744c-.036-.057-.248-.51-1.271-1.444-1.073-.976-.929-.818.362-2.508.787-1.028 1.1-1.656 1.003-1.925-.094-.257-.672-.188-.672-.188l-1.925.011s-.143-.019-.248.043c-.104.061-.17.203-.17.203s-.305.796-.711 1.473c-.857 1.428-1.2 1.504-1.34 1.415-.326-.207-.245-.83-.245-1.274 0-1.384.214-1.961-.416-2.11-.21-.05-.363-.083-.898-.088-.687-.007-1.268.002-1.597.16-.22.105-.389.34-.285.353.127.017.415.077.568.28.197.264.19.855.19.855s.113 1.63-.265 1.832c-.26.14-.615-.144-1.38-1.44A11.953 11.953 0 0 1 8.3 9.444s-.057-.137-.159-.21a.796.796 0 0 0-.295-.117l-1.83.012s-.274.007-.375.124c-.09.104-.007.32-.007.32s1.432 3.288 3.054 4.945c1.486 1.52 3.174 1.42 3.174 1.42h.765Z" fill="#E8EFF7"/></svg>