<svg width="24" height="24" fill="none" xmlns="http://www.w3.org/2000/svg"><path fill-rule="evenodd" clip-rule="evenodd" d="M0 12C0 5.373 5.373 0 12 0s12 5.373 12 12-5.373 12-12 12S0 18.627 0 12Z" fill="#BDC7D5"/><path fill-rule="evenodd" clip-rule="evenodd" d="M18.132 9.037A1.625 1.625 0 0 0 17 7.875c-.998-.275-5-.275-5-.275s-4.003 0-5.001.275c-.551.15-.985.596-1.132 1.162C5.6 10.062 5.6 12.2 5.6 12.2s0 2.139.267 3.164c.147.565.581 1.01 1.132 1.162.998.274 5 .274 5 .274s4.003 0 5.001-.274a1.627 1.627 0 0 0 1.132-1.162c.268-1.026.268-3.164.268-3.164s0-2.138-.268-3.163Z" fill="#E8EFF7"/><path fill-rule="evenodd" clip-rule="evenodd" d="M10.8 14.4v-4l3.2 2-3.2 2Z" fill="#BDC7D5"/></svg>