<svg width="194" height="37" viewBox="0 0 194 37" fill="none" xmlns="http://www.w3.org/2000/svg">
<path d="M81.7358 29.4611H79.1981L78.6285 31.0548H77.8047L80.1176 24.9483H80.8169L83.1338 31.0548H82.3145L81.7358 29.4611ZM79.4399 28.7985H81.4992L80.4669 25.9423L79.4399 28.7985ZM84.0343 31.0548V24.9483H86.015C86.6723 24.9483 87.1658 25.0854 87.4962 25.3594C87.8285 25.6334 87.9949 26.0388 87.9949 26.5756C87.9949 26.8608 87.915 27.1138 87.7537 27.3347C87.5932 27.5528 87.3736 27.722 87.0964 27.8422C87.4241 27.9344 87.6817 28.1106 87.8704 28.3706C88.0618 28.6279 88.1575 28.9354 88.1575 29.2933C88.1575 29.8413 87.9812 30.2719 87.6292 30.5851C87.2766 30.8982 86.7792 31.0548 86.1356 31.0548H84.0343ZM84.8333 28.1987V30.3963H86.1519C86.5235 30.3963 86.8165 30.2999 87.0302 30.1069C87.2465 29.9112 87.3546 29.6429 87.3546 29.3017C87.3546 28.5664 86.9581 28.1987 86.1644 28.1987H84.8333ZM84.8333 27.5528H86.0399C86.3892 27.5528 86.6677 27.4647 86.8762 27.2886C87.0865 27.1124 87.1921 26.8734 87.1921 26.5715C87.1921 26.2359 87.0951 25.9927 86.9011 25.8417C86.7071 25.6879 86.4115 25.611 86.015 25.611H84.8333V27.5528ZM93.4971 25.611H91.5499V31.0548H90.7555V25.611H88.8129V24.9483H93.4971V25.611ZM99.0241 28.1987C99.0241 28.797 98.9238 29.3199 98.7246 29.7673C98.5247 30.2118 98.2415 30.5515 97.8758 30.7864C97.5095 31.0212 97.0821 31.1387 96.5945 31.1387C96.1174 31.1387 95.694 31.0212 95.3256 30.7864C94.9567 30.5487 94.6696 30.2118 94.4644 29.7757C94.2619 29.3367 94.1577 28.8292 94.1525 28.2532V27.8129C94.1525 27.2257 94.2534 26.707 94.4559 26.2569C94.6584 25.8067 94.9442 25.4628 95.3132 25.2252C95.6848 24.9847 96.1089 24.8645 96.586 24.8645C97.0716 24.8645 97.4983 24.9833 97.8673 25.221C98.2389 25.4558 98.5247 25.7984 98.7246 26.2485C98.9238 26.6959 99.0241 27.2173 99.0241 27.8129V28.1987ZM98.2291 27.8045C98.2291 27.0803 98.0849 26.5253 97.7965 26.1394C97.5081 25.7508 97.1044 25.5565 96.586 25.5565C96.0813 25.5565 95.6835 25.7508 95.3918 26.1394C95.1035 26.5253 94.9553 27.0621 94.9468 27.7499V28.1987C94.9468 28.9005 95.0923 29.4527 95.384 29.8553C95.6776 30.2551 96.0813 30.4551 96.5945 30.4551C97.1103 30.4551 97.5095 30.2663 97.7926 29.8889C98.0751 29.5086 98.2212 28.9648 98.2291 28.2574V27.8045ZM101.339 24.9483L103.32 29.9308L105.3 24.9483H106.336V31.0548H105.537V28.6768L105.612 26.1101L103.623 31.0548H103.012L101.027 26.1227L101.106 28.6768V31.0548H100.307V24.9483H101.339ZM111.251 29.4611H108.713L108.143 31.0548H107.32L109.632 24.9483H110.331L112.649 31.0548H111.829L111.251 29.4611ZM108.954 28.7985H111.013L109.982 25.9423L108.954 28.7985ZM117.194 25.611H115.247V31.0548H114.452V25.611H112.509V24.9483H117.194V25.611ZM121.997 24.9483H122.796V31.0548H121.997V26.3491L119.014 31.0548H118.211V24.9483H119.014V29.654L121.997 24.9483ZM127.444 26.5882C127.444 26.2639 127.326 26.0066 127.091 25.8165C126.858 25.6236 126.529 25.5271 126.105 25.5271C125.75 25.5271 125.452 25.6264 125.21 25.8249C124.972 26.0206 124.852 26.2639 124.852 26.5547H124.054C124.054 26.2303 124.141 25.9396 124.316 25.6823C124.493 25.4251 124.74 25.2252 125.057 25.0825C125.373 24.9372 125.722 24.8645 126.105 24.8645C126.782 24.8645 127.307 25.0183 127.682 25.3258C128.056 25.6306 128.243 26.0556 128.243 26.6008C128.243 26.8832 128.158 27.1404 127.985 27.3725C127.813 27.6045 127.574 27.7877 127.266 27.9219C127.979 28.1623 128.335 28.6391 128.335 29.3521C128.335 29.9001 128.133 30.3348 127.728 30.6564C127.323 30.9779 126.782 31.1387 126.105 31.1387C125.703 31.1387 125.337 31.0674 125.006 30.9248C124.679 30.7794 124.424 30.5739 124.241 30.3083C124.058 30.0427 123.967 29.7267 123.967 29.3604H124.765C124.765 29.682 124.892 29.9504 125.144 30.1657C125.396 30.3782 125.717 30.4844 126.105 30.4844C126.541 30.4844 126.887 30.3824 127.145 30.1782C127.406 29.9741 127.536 29.7044 127.536 29.3688C127.536 28.653 127.096 28.2882 126.218 28.2742H125.468V27.6116H126.213C126.618 27.6032 126.925 27.5109 127.132 27.3347C127.34 27.1586 127.444 26.9097 127.444 26.5882ZM132.826 29.4611H130.288L129.718 31.0548H128.894L131.207 24.9483H131.906L134.223 31.0548H133.404L132.826 29.4611ZM130.529 28.7985H132.589L131.557 25.9423L130.529 28.7985ZM135.149 24.9483H135.952V30.3963H138.94V24.9483H139.738V30.3795H140.374L140.3 32.5269H139.58V31.0548H135.149V24.9483ZM145.26 24.9483H146.059V31.0548H145.26V26.3491L142.278 31.0548H141.475V24.9483H142.278V29.654L145.26 24.9483ZM150.771 31.0548V28.6768H149.373L148.121 31.0548H147.268L148.674 28.4546C147.892 28.1442 147.501 27.5892 147.501 26.7895C147.501 26.2079 147.689 25.7564 148.067 25.4348C148.447 25.1106 148.974 24.9483 149.648 24.9483H151.574V31.0548H150.771ZM148.299 26.7895C148.299 27.1586 148.413 27.455 148.641 27.6786C148.871 27.9023 149.19 28.0156 149.598 28.0184H150.771V25.611H149.635C149.203 25.611 148.871 25.7144 148.641 25.9214C148.413 26.1282 148.299 26.4176 148.299 26.7895ZM159.004 25.611H156.083V27.4396H157.589C158.222 27.448 158.715 27.6116 159.07 27.9303C159.426 28.249 159.603 28.6824 159.603 29.2304C159.603 29.7812 159.424 30.2202 159.066 30.5473C158.709 30.8745 158.22 31.0436 157.602 31.0548H155.28V24.9483H159.004V25.611ZM156.083 28.1022V30.3963H157.543C157.94 30.3963 158.248 30.2901 158.467 30.0776C158.689 29.8651 158.8 29.5799 158.8 29.222C158.8 28.8781 158.694 28.6069 158.48 28.4084C158.269 28.2099 157.968 28.1078 157.577 28.1022H156.083ZM164.589 24.9483H165.388V31.0548H164.589V26.3491L161.606 31.0548H160.803V24.9483H161.606V29.654L164.589 24.9483ZM170.037 26.5882C170.037 26.2639 169.919 26.0066 169.683 25.8165C169.45 25.6236 169.122 25.5271 168.697 25.5271C168.342 25.5271 168.044 25.6264 167.803 25.8249C167.564 26.0206 167.445 26.2639 167.445 26.5547H166.646C166.646 26.2303 166.733 25.9396 166.908 25.6823C167.086 25.4251 167.332 25.2252 167.649 25.0825C167.965 24.9372 168.314 24.8645 168.697 24.8645C169.374 24.8645 169.9 25.0183 170.274 25.3258C170.648 25.6306 170.836 26.0556 170.836 26.6008C170.836 26.8832 170.75 27.1404 170.577 27.3725C170.406 27.6045 170.166 27.7877 169.858 27.9219C170.571 28.1623 170.927 28.6391 170.927 29.3521C170.927 29.9001 170.725 30.3348 170.32 30.6564C169.915 30.9779 169.374 31.1387 168.697 31.1387C168.295 31.1387 167.929 31.0674 167.599 30.9248C167.271 30.7794 167.017 30.5739 166.834 30.3083C166.65 30.0427 166.559 29.7267 166.559 29.3604H167.357C167.357 29.682 167.484 29.9504 167.736 30.1657C167.988 30.3782 168.309 30.4844 168.697 30.4844C169.133 30.4844 169.48 30.3824 169.737 30.1782C169.998 29.9741 170.128 29.7044 170.128 29.3688C170.128 28.653 169.689 28.2882 168.81 28.2742H168.061V27.6116H168.805C169.21 27.6032 169.517 27.5109 169.725 27.3347C169.933 27.1586 170.037 26.9097 170.037 26.5882ZM176.728 31.0548H175.925V28.2322H172.872V31.0548H172.073V24.9483H172.872V27.5738H175.925V24.9483H176.728V31.0548ZM181.656 28.2322H179.031V30.3963H182.08V31.0548H178.232V24.9483H182.039V25.611H179.031V27.5738H181.656V28.2322ZM187.616 29.1172C187.541 29.763 187.304 30.2621 186.904 30.6144C186.508 30.964 185.979 31.1387 185.319 31.1387C184.604 31.1387 184.03 30.88 183.597 30.3628C183.167 29.8456 182.952 29.1535 182.952 28.2867V27.6996C182.952 27.132 183.052 26.633 183.252 26.2024C183.454 25.7718 183.74 25.4418 184.109 25.2126C184.478 24.9805 184.904 24.8645 185.39 24.8645C186.034 24.8645 186.55 25.0462 186.938 25.4097C187.326 25.7704 187.552 26.2708 187.616 26.9111H186.813C186.744 26.4246 186.592 26.0724 186.359 25.8543C186.129 25.6361 185.806 25.5271 185.39 25.5271C184.88 25.5271 184.479 25.7172 184.187 26.0975C183.899 26.4778 183.755 27.0188 183.755 27.7206V28.3119C183.755 28.9746 183.893 29.5017 184.167 29.8931C184.442 30.2845 184.826 30.4802 185.319 30.4802C185.763 30.4802 186.103 30.3796 186.339 30.1782C186.577 29.9741 186.735 29.6205 186.813 29.1172H187.616ZM192.14 29.4611H189.602L189.032 31.0548H188.208L190.522 24.9483H191.221L193.538 31.0548H192.718L192.14 29.4611ZM189.844 28.7985H191.903L190.871 25.9423L189.844 28.7985Z" fill="#C9CBCF"/>
<path d="M79.0781 3.58192H85.4093V5.37642H81.1151V9.22443H84.4551V11.0374H81.1151V17.1794H79.0781V3.58192ZM90.7266 17.3644C89.8582 17.3644 89.0875 17.1671 88.4144 16.7724C87.7419 16.3778 87.2215 15.8413 86.8545 15.1629C86.4875 14.4846 86.304 13.7323 86.304 12.9059C86.304 12.0919 86.4816 11.3458 86.8362 10.6674C87.2032 9.98908 87.7236 9.45258 88.396 9.05793C89.0691 8.66329 89.8458 8.46593 90.7266 8.46593C91.6075 8.46593 92.3783 8.66329 93.0389 9.05793C93.712 9.45258 94.2259 9.98908 94.5804 10.6674C94.9475 11.3458 95.131 12.0919 95.131 12.9059C95.131 13.7323 94.9475 14.4846 94.5804 15.1629C94.2134 15.8413 93.6937 16.3778 93.0206 16.7724C92.3599 17.1671 91.5957 17.3644 90.7266 17.3644ZM90.7817 15.7364C91.4915 15.7364 92.0479 15.4713 92.4517 14.9409C92.8679 14.4106 93.0756 13.7446 93.0756 12.9429C93.0756 12.1413 92.8554 11.4691 92.415 10.9264C91.9745 10.3714 91.3938 10.0939 90.6716 10.0939C89.9742 10.0939 89.4119 10.3653 88.9833 10.9079C88.5677 11.4506 88.3593 12.1289 88.3593 12.9429C88.3593 13.7323 88.5861 14.3983 89.0383 14.9409C89.4912 15.4713 90.0726 15.7364 90.7817 15.7364ZM97.1929 8.68793H99.1748V10.3529C99.3708 9.78558 99.6887 9.32929 100.129 8.98393C100.57 8.63858 101.071 8.46593 101.634 8.46593C102.025 8.46593 102.295 8.50293 102.441 8.57693L102.166 10.5934C102.056 10.5194 101.817 10.4824 101.45 10.4824C100.876 10.4824 100.349 10.6674 99.8722 11.0374C99.4075 11.4074 99.1748 11.9994 99.1748 12.8134V17.1794H97.1929V8.68793ZM104.577 10.3159H103.09V8.68793H104.577V5.22842L106.577 4.78442V8.68793H108.522V10.3159H106.577V17.1794H104.577V10.3159ZM114.115 17.3644C113.112 17.3644 112.274 17.1671 111.601 16.7724C110.928 16.3654 110.433 15.8289 110.115 15.1629C109.797 14.4846 109.638 13.7446 109.638 12.9429C109.638 12.0426 109.821 11.2533 110.188 10.5749C110.568 9.89658 111.087 9.37858 111.748 9.02093C112.409 8.65093 113.155 8.46593 113.987 8.46593C115.284 8.46593 116.244 8.82979 116.868 9.55743C117.505 10.2728 117.822 11.2841 117.822 12.5914C117.822 12.9244 117.804 13.2698 117.767 13.6274H111.711C111.846 14.3798 112.109 14.9224 112.501 15.2554C112.904 15.5884 113.461 15.7549 114.17 15.7549C114.758 15.7549 115.241 15.7056 115.62 15.6069C116 15.5083 116.348 15.3726 116.666 15.1999L117.272 16.6244C116.966 16.8218 116.55 16.9944 116.024 17.1424C115.498 17.2904 114.862 17.3644 114.115 17.3644ZM115.896 12.2399C115.908 11.4753 115.743 10.9388 115.4 10.6304C115.057 10.3098 114.568 10.1494 113.932 10.1494C112.647 10.1494 111.907 10.8463 111.711 12.2399H115.896ZM121.955 12.7764L119.001 8.68793H121.35L123.075 11.3149L124.708 8.68793H127.112L124.139 12.6654L127.369 17.1794H125.093L123.093 14.1824L121.185 17.1794H118.799L121.955 12.7764ZM136.625 17.3644C135.891 17.3644 135.163 17.2349 134.441 16.9759C133.719 16.7169 133.2 16.4271 132.881 16.1064L133.854 14.3489C134.111 14.5833 134.508 14.8299 135.046 15.0889C135.597 15.3356 136.123 15.4589 136.625 15.4589C137.274 15.4589 137.799 15.3048 138.203 14.9964C138.619 14.6881 138.827 14.2626 138.827 13.7199C138.827 13.3006 138.717 12.9368 138.497 12.6284C138.276 12.3201 138.008 12.0673 137.689 11.8699C137.371 11.6603 136.918 11.4074 136.331 11.1114C135.634 10.7661 135.157 10.5071 134.9 10.3344C133.713 9.53279 133.12 8.42279 133.12 7.00443C133.12 5.83275 133.505 4.93858 134.276 4.32192C135.046 3.69292 136.019 3.37842 137.194 3.37842C138.454 3.37842 139.524 3.74225 140.405 4.46992L139.432 6.15342C139.2 5.90675 138.87 5.69708 138.441 5.52442C138.026 5.33942 137.579 5.24692 137.102 5.24692C136.49 5.24692 136.007 5.38875 135.652 5.67242C135.31 5.94375 135.138 6.35075 135.138 6.89343C135.138 7.27579 135.248 7.62108 135.469 7.92943C135.689 8.22543 135.964 8.48443 136.294 8.70643C136.637 8.92843 137.096 9.19979 137.671 9.52043C138.221 9.82879 138.643 10.0754 138.937 10.2604C139.231 10.4331 139.506 10.6428 139.763 10.8894C140.118 11.2101 140.405 11.5924 140.625 12.0364C140.845 12.4804 140.956 12.9676 140.956 13.4979C140.956 14.3243 140.766 15.0273 140.387 15.6069C140.02 16.1866 139.506 16.6244 138.845 16.9204C138.197 17.2164 137.457 17.3644 136.625 17.3644ZM147.019 17.3644C146.015 17.3644 145.178 17.1671 144.505 16.7724C143.832 16.3654 143.336 15.8289 143.018 15.1629C142.7 14.4846 142.541 13.7446 142.541 12.9429C142.541 12.0426 142.725 11.2533 143.092 10.5749C143.471 9.89658 143.991 9.37858 144.651 9.02093C145.312 8.65093 146.059 8.46593 146.89 8.46593C148.187 8.46593 149.148 8.82979 149.771 9.55743C150.408 10.2728 150.726 11.2841 150.726 12.5914C150.726 12.9244 150.707 13.2698 150.671 13.6274H144.615C144.749 14.3798 145.013 14.9224 145.404 15.2554C145.808 15.5884 146.364 15.7549 147.074 15.7549C147.661 15.7549 148.144 15.7056 148.524 15.6069C148.903 15.5083 149.252 15.3726 149.57 15.1999L150.175 16.6244C149.869 16.8218 149.454 16.9944 148.927 17.1424C148.401 17.2904 147.765 17.3644 147.019 17.3644ZM148.799 12.2399C148.811 11.4753 148.646 10.9388 148.303 10.6304C147.961 10.3098 147.472 10.1494 146.835 10.1494C145.551 10.1494 144.811 10.8463 144.615 12.2399H148.799ZM152.748 8.68793H154.73V10.3529C154.926 9.78558 155.244 9.32929 155.685 8.98393C156.125 8.63858 156.627 8.46593 157.189 8.46593C157.581 8.46593 157.85 8.50293 157.997 8.57693L157.722 10.5934C157.611 10.5194 157.373 10.4824 157.006 10.4824C156.431 10.4824 155.905 10.6674 155.428 11.0374C154.963 11.4074 154.73 11.9994 154.73 12.8134V17.1794H152.748V8.68793ZM158.059 8.68793H160.316L162.133 12.5174L162.72 14.0529L163.308 12.5174L165.106 8.68793H167.308L162.885 17.1794H162.5L158.059 8.68793ZM168.721 8.68793H170.777V17.1794H168.721V8.68793ZM169.731 7.09693C169.351 7.09693 169.033 6.96743 168.776 6.70843C168.519 6.44942 168.391 6.12875 168.391 5.74642C168.391 5.40108 168.519 5.10508 168.776 4.85842C169.033 4.61175 169.351 4.48842 169.731 4.48842C170.098 4.48842 170.41 4.61175 170.666 4.85842C170.923 5.10508 171.052 5.40108 171.052 5.74642C171.052 6.12875 170.923 6.44942 170.666 6.70843C170.421 6.96743 170.109 7.09693 169.731 7.09693ZM177.448 17.3644C176.616 17.3644 175.863 17.1856 175.191 16.8279C174.53 16.4579 174.004 15.9338 173.612 15.2554C173.221 14.5648 173.025 13.7569 173.025 12.8319C173.025 11.9563 173.202 11.1916 173.557 10.5379C173.924 9.87193 174.432 9.36008 175.081 9.00243C175.741 8.64479 176.5 8.46593 177.356 8.46593C178.004 8.46593 178.561 8.55229 179.026 8.72493C179.503 8.88529 179.876 9.08879 180.146 9.33543L179.265 10.9449C178.751 10.4269 178.17 10.1679 177.521 10.1679C176.738 10.1679 176.138 10.4084 175.723 10.8894C175.319 11.3704 175.117 12.0118 175.117 12.8134C175.117 13.7261 175.325 14.4353 175.741 14.9409C176.169 15.4466 176.762 15.6994 177.521 15.6994C177.9 15.6994 178.267 15.6439 178.622 15.5329C178.989 15.4219 179.271 15.2924 179.467 15.1444L180.182 16.5504C179.913 16.7601 179.533 16.9513 179.044 17.1239C178.567 17.2843 178.035 17.3644 177.448 17.3644ZM186.051 17.3644C185.048 17.3644 184.21 17.1671 183.537 16.7724C182.864 16.3654 182.369 15.8289 182.051 15.1629C181.732 14.4846 181.574 13.7446 181.574 12.9429C181.574 12.0426 181.757 11.2533 182.124 10.5749C182.503 9.89658 183.023 9.37858 183.684 9.02093C184.345 8.65093 185.091 8.46593 185.923 8.46593C187.219 8.46593 188.18 8.82979 188.804 9.55743C189.44 10.2728 189.758 11.2841 189.758 12.5914C189.758 12.9244 189.74 13.2698 189.703 13.6274H183.647C183.782 14.3798 184.045 14.9224 184.436 15.2554C184.84 15.5884 185.397 15.7549 186.106 15.7549C186.694 15.7549 187.177 15.7056 187.556 15.6069C187.935 15.5083 188.284 15.3726 188.602 15.1999L189.208 16.6244C188.902 16.8218 188.486 16.9944 187.96 17.1424C187.434 17.2904 186.797 17.3644 186.051 17.3644ZM187.831 12.2399C187.843 11.4753 187.678 10.9388 187.336 10.6304C186.993 10.3098 186.504 10.1494 185.868 10.1494C184.583 10.1494 183.843 10.8463 183.647 12.2399H187.831Z" fill="white"/>
<path d="M79.0785 3.5814V3.38319H78.8818V3.5814H79.0785ZM85.4097 3.5814H85.6063V3.38319H85.4097V3.5814ZM85.4097 5.3759V5.57412H85.6063V5.3759H85.4097ZM81.1155 5.3759V5.17769H80.9188V5.3759H81.1155ZM81.1155 9.2239H80.9188V9.42212H81.1155V9.2239ZM84.4554 9.2239H84.652V9.02569H84.4554V9.2239ZM84.4554 11.0369V11.2351H84.652V11.0369H84.4554ZM81.1155 11.0369V10.8387H80.9188V11.0369H81.1155ZM81.1155 17.1789V17.3771H81.3121V17.1789H81.1155ZM79.0785 17.1789H78.8818V17.3771H79.0785V17.1789ZM79.0785 3.77962H85.4097V3.38319H79.0785V3.77962ZM85.2131 3.5814V5.3759H85.6063V3.5814H85.2131ZM85.4097 5.17769H81.1155V5.57412H85.4097V5.17769ZM80.9188 5.3759V9.2239H81.3121V5.3759H80.9188ZM81.1155 9.42212H84.4554V9.02569H81.1155V9.42212ZM84.2588 9.2239V11.0369H84.652V9.2239H84.2588ZM84.4554 10.8387H81.1155V11.2351H84.4554V10.8387ZM80.9188 11.0369V17.1789H81.3121V11.0369H80.9188ZM81.1155 16.9807H79.0785V17.3771H81.1155V16.9807ZM79.2751 17.1789V3.5814H78.8818V17.1789H79.2751ZM88.4154 16.7719L88.5143 16.6006L88.4154 16.7719ZM86.8555 15.1624L86.6825 15.2573L86.8555 15.1624ZM86.8371 10.6669L86.6641 10.572L86.6628 10.5745L86.8371 10.6669ZM88.397 9.0574L88.298 8.88608L88.397 9.0574ZM93.0399 9.0574L92.9396 9.22793L92.9409 9.22873L93.0399 9.0574ZM94.5814 10.6669L94.4071 10.7593L94.4084 10.7618L94.5814 10.6669ZM94.5814 15.1624L94.4084 15.0675L94.5814 15.1624ZM93.0215 16.7719L92.9226 16.6006L92.9213 16.6014L93.0215 16.7719ZM92.4527 14.9404L92.298 14.8174L92.2967 14.8198L92.4527 14.9404ZM92.416 10.9259L92.2619 11.0497L92.2632 11.0514L92.416 10.9259ZM88.9843 10.9074L88.8302 10.784L88.8283 10.7862L88.9843 10.9074ZM89.0393 14.9404L88.8886 15.068L88.8899 15.0697L89.0393 14.9404ZM90.7276 17.1657C89.8894 17.1657 89.1533 16.9757 88.5143 16.6006L88.3164 16.9432C89.0223 17.3575 89.8284 17.5621 90.7276 17.5621V17.1657ZM88.5143 16.6006C87.8714 16.2238 87.3772 15.7135 87.0279 15.0675L86.6825 15.2573C87.0672 15.9679 87.6131 16.5307 88.3164 16.9432L88.5143 16.6006ZM87.0279 15.0675C86.6779 14.4203 86.5016 13.701 86.5016 12.9054H86.1083C86.1083 13.7625 86.2991 14.5479 86.6825 15.2573L87.0279 15.0675ZM86.5016 12.9054C86.5016 12.1216 86.672 11.4074 87.0108 10.7593L86.6628 10.5745C86.2925 11.283 86.1083 12.0612 86.1083 12.9054H86.5016ZM87.0095 10.7618C87.3589 10.1158 87.853 9.60546 88.496 9.22873L88.298 8.88608C87.5948 9.29863 87.0488 9.86136 86.6641 10.572L87.0095 10.7618ZM88.496 9.22873C89.135 8.8539 89.8769 8.66362 90.7276 8.66362V8.26719C89.8166 8.26719 89.0046 8.47155 88.298 8.88608L88.496 9.22873ZM90.7276 8.66362C91.5783 8.66362 92.3131 8.8539 92.9396 9.22793L93.1402 8.88687C92.4448 8.47155 91.638 8.26719 90.7276 8.26719V8.66362ZM92.9409 9.22873C93.5826 9.6052 94.0702 10.1147 94.4071 10.7593L94.7551 10.5745C94.3828 9.86248 93.8428 9.29896 93.1389 8.88608L92.9409 9.22873ZM94.4084 10.7618C94.759 11.4095 94.9353 12.1227 94.9353 12.9054H95.3286C95.3286 12.0601 95.1372 11.281 94.7538 10.572L94.4084 10.7618ZM94.9353 12.9054C94.9353 13.701 94.759 14.4203 94.4084 15.0675L94.7538 15.2573C95.1379 14.5479 95.3286 13.7625 95.3286 12.9054H94.9353ZM94.4084 15.0675C94.0591 15.7135 93.5649 16.2238 92.9226 16.6006L93.1205 16.9432C93.8238 16.5307 94.3691 15.9679 94.7538 15.2573L94.4084 15.0675ZM92.9213 16.6014C92.2947 16.9757 91.5652 17.1657 90.7276 17.1657V17.5621C91.6268 17.5621 92.4264 17.3575 93.1218 16.9424L92.9213 16.6014ZM90.7827 15.9341C91.5482 15.9341 92.1643 15.6441 92.6086 15.061L92.2967 14.8198C91.9329 15.2973 91.4361 15.5377 90.7827 15.5377V15.9341ZM92.6067 15.0634C93.055 14.4918 93.2732 13.7801 93.2732 12.9424H92.88C92.88 13.708 92.6821 14.3283 92.298 14.8174L92.6067 15.0634ZM93.2732 12.9424C93.2732 12.1019 93.0412 11.3834 92.568 10.8004L92.2632 11.0514C92.6709 11.5536 92.88 12.1795 92.88 12.9424H93.2732ZM92.5693 10.8021C92.0902 10.1988 91.4525 9.89519 90.6726 9.89519V10.2916C91.3358 10.2916 91.8602 10.543 92.2619 11.0497L92.5693 10.8021ZM90.6726 9.89519C89.9162 9.89519 89.2962 10.1933 88.8302 10.784L89.1376 11.0308C89.5282 10.5361 90.0342 10.2916 90.6726 10.2916V9.89519ZM88.8283 10.7862C88.3813 11.3698 88.1637 12.0931 88.1637 12.9424H88.5569C88.5569 12.1637 88.7549 11.5304 89.1396 11.0286L88.8283 10.7862ZM88.1637 12.9424C88.1637 13.7728 88.4029 14.4855 88.8886 15.068L89.1894 14.8128C88.7699 14.3099 88.5569 13.6907 88.5569 12.9424H88.1637ZM88.8899 15.0697C89.3808 15.6449 90.0172 15.9341 90.7827 15.9341V15.5377C90.1286 15.5377 89.6023 15.2966 89.1881 14.8111L88.8899 15.0697ZM97.1932 8.6874V8.48919H96.9966V8.6874H97.1932ZM99.1752 8.6874H99.3718V8.48919H99.1752V8.6874ZM99.1752 10.3524H98.9785L99.3606 10.4175L99.1752 10.3524ZM100.129 8.9834L100.25 9.13986L100.129 8.9834ZM102.442 8.5764L102.636 8.60343L102.656 8.46263L102.53 8.39913L102.442 8.5764ZM102.166 10.5929L102.058 10.7578L102.318 10.9333L102.361 10.6199L102.166 10.5929ZM99.8725 11.0369L99.7526 10.8798L99.7506 10.8813L99.8725 11.0369ZM99.1752 17.1789V17.3771H99.3718V17.1789H99.1752ZM97.1932 17.1789H96.9966V17.3771H97.1932V17.1789ZM97.1932 8.88562H99.1752V8.48919H97.1932V8.88562ZM98.9785 8.6874V10.3524H99.3718V8.6874H98.9785ZM99.3606 10.4175C99.5448 9.88376 99.8417 9.46011 100.25 9.13986L100.009 8.82695C99.5363 9.19741 99.1968 9.6864 98.9897 10.2873L99.3606 10.4175ZM100.25 9.13986C100.656 8.82186 101.114 8.66362 101.634 8.66362V8.26719C101.028 8.26719 100.484 8.4543 100.009 8.82695L100.25 9.13986ZM101.634 8.66362C102.026 8.66362 102.253 8.70273 102.354 8.75367L102.53 8.39913C102.337 8.30207 102.025 8.26719 101.634 8.26719V8.66362ZM102.247 8.54938L101.972 10.5659L102.361 10.6199L102.636 8.60343L102.247 8.54938ZM102.275 10.428C102.184 10.3667 102.063 10.3336 101.935 10.3138C101.802 10.2931 101.639 10.2837 101.451 10.2837V10.6801C101.629 10.6801 101.769 10.6892 101.875 10.7056C101.986 10.7227 102.039 10.7451 102.058 10.7578L102.275 10.428ZM101.451 10.2837C100.83 10.2837 100.262 10.4845 99.7526 10.8798L99.9924 11.194C100.437 10.8493 100.921 10.6801 101.451 10.6801V10.2837ZM99.7506 10.8813C99.223 11.3014 98.9785 11.9617 98.9785 12.8129H99.3718C99.3718 12.0361 99.5926 11.5124 99.9944 11.1925L99.7506 10.8813ZM98.9785 12.8129V17.1789H99.3718V12.8129H98.9785ZM99.1752 16.9807H97.1932V17.3771H99.1752V16.9807ZM97.3898 17.1789V8.6874H96.9966V17.1789H97.3898ZM104.578 10.3154H104.774V10.1172H104.578V10.3154ZM103.091 10.3154H102.895V10.5136H103.091V10.3154ZM103.091 8.6874V8.48919H102.895V8.6874H103.091ZM104.578 8.6874V8.88562H104.774V8.6874H104.578ZM104.578 5.2279L104.535 5.03433L104.381 5.06858V5.2279H104.578ZM106.578 4.7839H106.775V4.5373L106.535 4.59033L106.578 4.7839ZM106.578 8.6874H106.381V8.88562H106.578V8.6874ZM108.523 8.6874H108.72V8.48919H108.523V8.6874ZM108.523 10.3154V10.5136H108.72V10.3154H108.523ZM106.578 10.3154V10.1172H106.381V10.3154H106.578ZM106.578 17.1789V17.3771H106.775V17.1789H106.578ZM104.578 17.1789H104.381V17.3771H104.578V17.1789ZM104.578 10.1172H103.091V10.5136H104.578V10.1172ZM103.288 10.3154V8.6874H102.895V10.3154H103.288ZM103.091 8.88562H104.578V8.48919H103.091V8.88562ZM104.774 8.6874V5.2279H104.381V8.6874H104.774ZM104.62 5.42148L106.62 4.97748L106.535 4.59033L104.535 5.03433L104.62 5.42148ZM106.381 4.7839V8.6874H106.775V4.7839H106.381ZM106.578 8.88562H108.523V8.48919H106.578V8.88562ZM108.327 8.6874V10.3154H108.72V8.6874H108.327ZM108.523 10.1172H106.578V10.5136H108.523V10.1172ZM106.381 10.3154V17.1789H106.775V10.3154H106.381ZM106.578 16.9807H104.578V17.3771H106.578V16.9807ZM104.774 17.1789V10.3154H104.381V17.1789H104.774ZM111.602 16.7719L111.501 16.9419L111.503 16.9432L111.602 16.7719ZM110.115 15.1624L109.938 15.2471L109.938 15.2484L110.115 15.1624ZM110.189 10.5744L110.018 10.4771L110.016 10.4795L110.189 10.5744ZM111.748 9.0204L111.842 9.19503L111.844 9.19364L111.748 9.0204ZM116.868 9.5569L116.72 9.68653L116.722 9.68924L116.868 9.5569ZM117.768 13.6269V13.8251H117.945L117.964 13.6473L117.768 13.6269ZM111.712 13.6269V13.4287H111.476L111.518 13.6621L111.712 13.6269ZM112.501 15.2549L112.374 15.4064L112.376 15.4083L112.501 15.2549ZM115.621 15.6064L115.571 15.4145L115.621 15.6064ZM116.667 15.1994L116.848 15.1213L116.763 14.9222L116.574 15.0249L116.667 15.1994ZM117.272 16.6239L117.378 16.7909L117.519 16.7003L117.453 16.5458L117.272 16.6239ZM116.024 17.1419L115.972 16.951L116.024 17.1419ZM115.896 12.2394V12.4376H116.089L116.092 12.2426L115.896 12.2394ZM115.4 10.6299L115.267 10.7752L115.269 10.7778L115.4 10.6299ZM111.712 12.2394L111.517 12.2116L111.486 12.4376H111.712V12.2394ZM114.116 17.1657C113.138 17.1657 112.336 16.9732 111.701 16.6006L111.503 16.9432C112.213 17.3599 113.088 17.5621 114.116 17.5621V17.1657ZM111.703 16.602C111.06 16.2134 110.593 15.705 110.293 15.0764L109.938 15.2484C110.274 15.9518 110.797 16.5164 111.501 16.9418L111.703 16.602ZM110.293 15.0777C109.988 14.4276 109.835 13.7168 109.835 12.9424H109.441C109.441 13.7713 109.606 14.5405 109.938 15.2471L110.293 15.0777ZM109.835 12.9424C109.835 12.0697 110.012 11.3141 110.362 10.6693L110.016 10.4795C109.631 11.1914 109.441 12.0144 109.441 12.9424H109.835ZM110.36 10.6717C110.721 10.0251 111.215 9.53437 111.842 9.19503L111.655 8.84578C110.961 9.22179 110.415 9.76708 110.018 10.4771L110.36 10.6717ZM111.844 9.19364C112.473 8.84161 113.186 8.66362 113.987 8.66362V8.26719C113.125 8.26719 112.346 8.45919 111.653 8.84716L111.844 9.19364ZM113.987 8.66362C115.249 8.66362 116.146 9.0165 116.72 9.68653L117.017 9.42727C116.344 8.64194 115.32 8.26719 113.987 8.26719V8.66362ZM116.722 9.68924C117.316 10.3568 117.626 11.3146 117.626 12.5909H118.019C118.019 11.2525 117.694 10.1876 117.015 9.42456L116.722 9.68924ZM117.626 12.5909C117.626 12.9166 117.608 13.2551 117.572 13.6065L117.964 13.6473C118.001 13.2834 118.019 12.9312 118.019 12.5909H117.626ZM117.768 13.4287H111.712V13.8251H117.768V13.4287ZM111.518 13.6621C111.657 14.4387 111.935 15.0322 112.374 15.4064L112.628 15.1034C112.285 14.8116 112.036 14.3197 111.905 13.5918L111.518 13.6621ZM112.376 15.4083C112.826 15.7792 113.432 15.9526 114.171 15.9526V15.5562C113.491 15.5562 112.983 15.3966 112.625 15.1015L112.376 15.4083ZM114.171 15.9526C114.767 15.9526 115.269 15.9027 115.67 15.7983L115.571 15.4145C115.214 15.5074 114.749 15.5562 114.171 15.5562V15.9526ZM115.67 15.7983C116.063 15.696 116.427 15.5547 116.76 15.3739L116.574 15.0249C116.271 15.1894 115.936 15.3195 115.571 15.4145L115.67 15.7983ZM116.486 15.2775L117.091 16.702L117.453 16.5458L116.848 15.1213L116.486 15.2775ZM117.167 16.4569C116.883 16.6398 116.487 16.8059 115.972 16.951L116.077 17.3328C116.614 17.1819 117.05 17.0027 117.378 16.7909L117.167 16.4569ZM115.972 16.951C115.468 17.0927 114.85 17.1657 114.116 17.1657V17.5621C114.874 17.5621 115.529 17.4871 116.077 17.3328L115.972 16.951ZM116.092 12.2426C116.105 11.4568 115.938 10.8477 115.531 10.482L115.269 10.7778C115.548 11.0288 115.711 11.4927 115.699 12.2362L116.092 12.2426ZM115.534 10.4847C115.144 10.1192 114.6 9.95069 113.932 9.95069V10.3471C114.537 10.3471 114.972 10.4992 115.267 10.7751L115.534 10.4847ZM113.932 9.95069C113.254 9.95069 112.695 10.1355 112.279 10.5266C111.866 10.9159 111.619 11.4868 111.517 12.2116L111.906 12.2672C112.001 11.5984 112.221 11.124 112.548 10.8164C112.872 10.5108 113.326 10.3471 113.932 10.3471V9.95069ZM111.712 12.4376H115.896V12.0412H111.712V12.4376ZM121.956 12.7759L122.116 12.892L122.199 12.7754L122.115 12.6592L121.956 12.7759ZM119.002 8.6874V8.48919H118.615L118.843 8.80408L119.002 8.6874ZM121.351 8.6874L121.515 8.57799L121.456 8.48919H121.351V8.6874ZM123.076 11.3144L122.911 11.4238L123.08 11.6804L123.242 11.4197L123.076 11.3144ZM124.709 8.6874V8.48919H124.6L124.542 8.58215L124.709 8.6874ZM127.113 8.6874L127.27 8.80666L127.507 8.48919H127.113V8.6874ZM124.14 12.6649L123.983 12.5456L123.896 12.6623L123.98 12.7809L124.14 12.6649ZM127.37 17.1789V17.3771H127.754L127.529 17.0629L127.37 17.1789ZM125.094 17.1789L124.931 17.2896L124.99 17.3771H125.094V17.1789ZM123.094 14.1819L123.257 14.0712L123.09 13.8211L122.928 14.0748L123.094 14.1819ZM121.186 17.1789V17.3771H121.292L121.351 17.286L121.186 17.1789ZM118.8 17.1789L118.64 17.0628L118.415 17.3771H118.8V17.1789ZM122.115 12.6592L119.16 8.57072L118.843 8.80408L121.797 12.8926L122.115 12.6592ZM119.002 8.88562H121.351V8.48919H119.002V8.88562ZM121.186 8.79682L122.911 11.4238L123.24 11.205L121.515 8.57799L121.186 8.79682ZM123.242 11.4197L124.876 8.79265L124.542 8.58215L122.909 11.2092L123.242 11.4197ZM124.709 8.88562H127.113V8.48919H124.709V8.88562ZM126.956 8.56814L123.983 12.5456L124.297 12.7842L127.27 8.80666L126.956 8.56814ZM123.98 12.7809L127.21 17.2949L127.529 17.0629L124.299 12.5489L123.98 12.7809ZM127.37 16.9807H125.094V17.3771H127.37V16.9807ZM125.257 17.0682L123.257 14.0712L122.931 14.2926L124.931 17.2896L125.257 17.0682ZM122.928 14.0748L121.02 17.0718L121.351 17.286L123.259 14.289L122.928 14.0748ZM121.186 16.9807H118.8V17.3771H121.186V16.9807ZM118.959 17.295L122.116 12.892L121.796 12.6598L118.64 17.0628L118.959 17.295ZM134.441 16.9754L134.507 16.7887L134.441 16.9754ZM132.881 16.1059L132.71 16.0093L132.638 16.1401L132.742 16.246L132.881 16.1059ZM133.854 14.3484L133.986 14.2014L133.803 14.0343L133.682 14.2518L133.854 14.3484ZM135.047 15.0884L134.962 15.2673L134.967 15.2695L135.047 15.0884ZM138.203 14.9959L138.087 14.8362L138.085 14.8379L138.203 14.9959ZM138.497 12.6279L138.338 12.7437L138.497 12.6279ZM137.689 11.8694L137.582 12.0354L137.586 12.0382L137.689 11.8694ZM136.331 11.1109L136.42 10.9336L136.419 10.933L136.331 11.1109ZM134.9 10.3339L134.791 10.4986L134.791 10.4988L134.9 10.3339ZM134.276 4.3214L134.399 4.47667L134.4 4.47546L134.276 4.3214ZM140.405 4.4694L140.576 4.56916L140.66 4.42317L140.531 4.31609L140.405 4.4694ZM139.433 6.1529L139.291 6.28942L139.471 6.481L139.603 6.25266L139.433 6.1529ZM138.442 5.5239L138.362 5.70536L138.369 5.70794L138.442 5.5239ZM135.652 5.6719L135.774 5.82776L135.775 5.8272L135.652 5.6719ZM135.469 7.9289L135.31 8.04473L135.312 8.04783L135.469 7.9289ZM136.295 8.7059L136.186 8.87082L136.189 8.87267L136.295 8.7059ZM137.671 9.5199L137.767 9.34666V9.34646L137.671 9.5199ZM138.937 10.2599L138.833 10.4281L138.838 10.4311L138.937 10.2599ZM139.763 10.8889L139.627 11.0325L139.632 11.0365L139.763 10.8889ZM140.626 12.0359L140.802 11.9472L140.626 12.0359ZM140.387 15.6064L140.223 15.4973L140.222 15.4998L140.387 15.6064ZM138.846 16.9199L138.766 16.7387L138.765 16.7393L138.846 16.9199ZM136.625 17.1657C135.915 17.1657 135.209 17.0404 134.507 16.7887L134.376 17.1621C135.118 17.4284 135.868 17.5621 136.625 17.5621V17.1657ZM134.507 16.7887C133.796 16.5335 133.309 16.2558 133.021 15.9658L132.742 16.246C133.091 16.5973 133.643 16.8993 134.376 17.1621L134.507 16.7887ZM133.053 16.2025L134.026 14.445L133.682 14.2518L132.71 16.0093L133.053 16.2025ZM133.722 14.4954C134 14.7486 134.418 15.0051 134.962 15.2673L135.132 14.9095C134.6 14.6537 134.222 14.4169 133.986 14.2014L133.722 14.4954ZM134.967 15.2695C135.538 15.5253 136.092 15.6566 136.625 15.6566V15.2602C136.156 15.2602 135.657 15.1449 135.127 14.9073L134.967 15.2695ZM136.625 15.6566C137.305 15.6566 137.876 15.4949 138.323 15.1539L138.085 14.8379C137.723 15.1136 137.243 15.2602 136.625 15.2602V15.6566ZM138.32 15.1556C138.789 14.8081 139.024 14.322 139.024 13.7194H138.631C138.631 14.2022 138.45 14.567 138.087 14.8362L138.32 15.1556ZM139.024 13.7194C139.024 13.263 138.903 12.8576 138.657 12.5121L138.338 12.7437C138.531 13.0148 138.631 13.3371 138.631 13.7194H139.024ZM138.657 12.5121C138.421 12.1827 138.133 11.9118 137.793 11.7006L137.586 12.0382C137.882 12.2217 138.132 12.4564 138.338 12.7437L138.657 12.5121ZM137.798 11.7035C137.47 11.4877 137.01 11.231 136.42 10.9336L136.244 11.2882C136.828 11.5829 137.273 11.8317 137.582 12.0353L137.798 11.7035ZM136.419 10.933C135.721 10.5875 135.254 10.3336 135.009 10.169L134.791 10.4988C135.06 10.6796 135.548 10.9437 136.245 11.2888L136.419 10.933ZM135.009 10.1693C133.876 9.40368 133.317 8.35493 133.317 7.0039H132.923C132.923 8.48958 133.551 9.66077 134.791 10.4986L135.009 10.1693ZM133.317 7.0039C133.317 5.88046 133.684 5.04872 134.399 4.47666L134.154 4.16614C133.328 4.82742 132.923 5.78401 132.923 7.0039H133.317ZM134.4 4.47546C135.129 3.88008 136.056 3.57612 137.194 3.57612V3.17969C135.983 3.17969 134.965 3.50473 134.153 4.16734L134.4 4.47546ZM137.194 3.57612C138.414 3.57612 139.439 3.92721 140.281 4.62271L140.531 4.31609C139.61 3.55626 138.495 3.17969 137.194 3.17969V3.57612ZM140.236 4.36964L139.263 6.05315L139.603 6.25266L140.576 4.56916L140.236 4.36964ZM139.576 6.01638C139.318 5.74289 138.96 5.51947 138.515 5.33987L138.369 5.70794C138.78 5.87366 139.083 6.06958 139.291 6.28942L139.576 6.01638ZM138.522 5.34255C138.079 5.14588 137.605 5.04819 137.102 5.04819V5.44462C137.554 5.44462 137.973 5.53192 138.362 5.70525L138.522 5.34255ZM137.102 5.04819C136.462 5.04819 135.93 5.19679 135.53 5.5166L135.775 5.8272C136.084 5.57968 136.519 5.44462 137.102 5.44462V5.04819ZM135.531 5.51604C135.13 5.83375 134.942 6.30524 134.942 6.8929H135.335C135.335 6.39523 135.49 6.05272 135.774 5.82776L135.531 5.51604ZM134.942 6.8929C134.942 7.31655 135.065 7.70241 135.31 8.04473L135.629 7.81308C135.433 7.53868 135.335 7.23396 135.335 6.8929H134.942ZM135.312 8.04783C135.546 8.36319 135.839 8.63739 136.186 8.87082L136.404 8.54099C136.091 8.33042 135.832 8.08662 135.626 7.80997L135.312 8.04783ZM136.189 8.87267C136.537 9.09797 136.999 9.3717 137.576 9.69334L137.767 9.34646C137.193 9.02681 136.738 8.75783 136.402 8.53914L136.189 8.87267ZM137.576 9.69314C138.125 10.001 138.544 10.2457 138.833 10.428L139.041 10.0918C138.744 9.90411 138.319 9.65555 137.767 9.34666L137.576 9.69314ZM138.838 10.4311C139.118 10.5957 139.382 10.7959 139.628 11.0324L139.899 10.7454C139.631 10.4885 139.344 10.2695 139.037 10.0887L138.838 10.4311ZM139.632 11.0365C139.968 11.34 140.24 11.7021 140.45 12.1246L140.802 11.9472C140.571 11.4817 140.268 11.0792 139.895 10.7413L139.632 11.0365ZM140.45 12.1246C140.656 12.5392 140.759 12.9957 140.759 13.4974H141.153C141.153 12.9384 141.037 12.4206 140.802 11.9472L140.45 12.1246ZM140.759 13.4974C140.759 14.2924 140.578 14.9557 140.223 15.4973L140.552 15.7156C140.956 15.0977 141.153 14.3551 141.153 13.4974H140.759ZM140.222 15.4998C139.876 16.0447 139.393 16.4576 138.766 16.7388L138.925 17.101C139.62 16.7902 140.164 16.3275 140.553 15.713L140.222 15.4998ZM138.765 16.7393C138.146 17.0219 137.434 17.1657 136.625 17.1657V17.5621C137.48 17.5621 138.249 17.4099 138.927 17.1005L138.765 16.7393ZM144.505 16.7719L144.404 16.9419L144.406 16.9432L144.505 16.7719ZM143.019 15.1624L142.841 15.2471L142.842 15.2484L143.019 15.1624ZM143.092 10.5744L142.921 10.4771L142.92 10.4795L143.092 10.5744ZM144.652 9.0204L144.745 9.19503L144.747 9.19364L144.652 9.0204ZM149.772 9.5569L149.623 9.68653L149.626 9.68924L149.772 9.5569ZM150.671 13.6269V13.8251H150.848L150.866 13.6473L150.671 13.6269ZM144.615 13.6269V13.4287H144.38L144.422 13.6621L144.615 13.6269ZM145.404 15.2549L145.277 15.4064L145.28 15.4083L145.404 15.2549ZM148.524 15.6064L148.475 15.4145L148.524 15.6064ZM149.57 15.1994L149.751 15.1213L149.666 14.9222L149.477 15.0249L149.57 15.1994ZM150.176 16.6239L150.282 16.7909L150.422 16.7003L150.356 16.5458L150.176 16.6239ZM148.928 17.1419L148.875 16.951L148.928 17.1419ZM148.799 12.2394V12.4376H148.993L148.996 12.2426L148.799 12.2394ZM148.304 10.6299L148.17 10.7752L148.173 10.7778L148.304 10.6299ZM144.615 12.2394L144.42 12.2116L144.388 12.4376H144.615V12.2394ZM147.019 17.1657C146.041 17.1657 145.239 16.9732 144.604 16.6006L144.406 16.9432C145.116 17.3599 145.991 17.5621 147.019 17.5621V17.1657ZM144.606 16.602C143.964 16.2134 143.496 15.705 143.195 15.0764L142.842 15.2484C143.177 15.9518 143.7 16.5164 144.404 16.9418L144.606 16.602ZM143.196 15.0777C142.891 14.4276 142.738 13.7168 142.738 12.9424H142.345C142.345 13.7713 142.51 14.5405 142.841 15.2471L143.196 15.0777ZM142.738 12.9424C142.738 12.0697 142.916 11.3141 143.264 10.6693L142.92 10.4795C142.534 11.1914 142.345 12.0144 142.345 12.9424H142.738ZM143.263 10.6717C143.625 10.0251 144.118 9.53437 144.745 9.19503L144.559 8.84578C143.864 9.22179 143.317 9.76708 142.921 10.4771L143.263 10.6717ZM144.747 9.19364C145.376 8.84161 146.088 8.66362 146.891 8.66362V8.26719C146.029 8.26719 145.249 8.45919 144.556 8.84716L144.747 9.19364ZM146.891 8.66362C148.152 8.66362 149.048 9.0165 149.623 9.68653L149.921 9.42727C149.247 8.64194 148.223 8.26719 146.891 8.26719V8.66362ZM149.626 9.68924C150.219 10.3568 150.529 11.3146 150.529 12.5909H150.923C150.923 11.2525 150.597 10.1876 149.918 9.42456L149.626 9.68924ZM150.529 12.5909C150.529 12.9166 150.512 13.2551 150.475 13.6065L150.866 13.6473C150.904 13.2834 150.923 12.9312 150.923 12.5909H150.529ZM150.671 13.4287H144.615V13.8251H150.671V13.4287ZM144.422 13.6621C144.561 14.4387 144.837 15.0322 145.277 15.4064L145.531 15.1034C145.188 14.8116 144.939 14.3197 144.808 13.5918L144.422 13.6621ZM145.28 15.4083C145.729 15.7792 146.335 15.9526 147.074 15.9526V15.5562C146.394 15.5562 145.887 15.3966 145.529 15.1015L145.28 15.4083ZM147.074 15.9526C147.671 15.9526 148.172 15.9027 148.573 15.7983L148.475 15.4145C148.118 15.5074 147.652 15.5562 147.074 15.5562V15.9526ZM148.573 15.7983C148.966 15.696 149.33 15.5547 149.663 15.3739L149.477 15.0249C149.173 15.1894 148.84 15.3195 148.475 15.4145L148.573 15.7983ZM149.389 15.2775L149.995 16.702L150.356 16.5458L149.751 15.1213L149.389 15.2775ZM150.069 16.4569C149.786 16.6398 149.39 16.8059 148.875 16.951L148.981 17.3328C149.517 17.1819 149.953 17.0027 150.282 16.7909L150.069 16.4569ZM148.875 16.951C148.371 17.0927 147.754 17.1657 147.019 17.1657V17.5621C147.777 17.5621 148.432 17.4871 148.981 17.3328L148.875 16.951ZM148.996 12.2426C149.008 11.4568 148.841 10.8477 148.435 10.482L148.173 10.7778C148.452 11.0288 148.614 11.4927 148.603 12.2362L148.996 12.2426ZM148.437 10.4847C148.047 10.1192 147.503 9.95069 146.836 9.95069V10.3471C147.441 10.3471 147.875 10.4992 148.17 10.7751L148.437 10.4847ZM146.836 9.95069C146.157 9.95069 145.598 10.1355 145.183 10.5266C144.769 10.9159 144.522 11.4868 144.42 12.2116L144.81 12.2672C144.903 11.5984 145.124 11.124 145.451 10.8164C145.776 10.5108 146.229 10.3471 146.836 10.3471V9.95069ZM144.615 12.4376H148.799V12.0412H144.615V12.4376ZM152.749 8.6874V8.48919H152.552V8.6874H152.749ZM154.731 8.6874H154.927V8.48919H154.731V8.6874ZM154.731 10.3524H154.534L154.917 10.4175L154.731 10.3524ZM155.685 8.9834L155.805 9.13986L155.685 8.9834ZM157.997 8.5764L158.192 8.60343L158.211 8.46263L158.085 8.39913L157.997 8.5764ZM157.722 10.5929L157.613 10.7578L157.874 10.9333L157.917 10.6199L157.722 10.5929ZM155.428 11.0369L155.308 10.8798L155.306 10.8813L155.428 11.0369ZM154.731 17.1789V17.3771H154.927V17.1789H154.731ZM152.749 17.1789H152.552V17.3771H152.749V17.1789ZM152.749 8.88562H154.731V8.48919H152.749V8.88562ZM154.534 8.6874V10.3524H154.927V8.6874H154.534ZM154.917 10.4175C155.101 9.88376 155.397 9.46011 155.805 9.13986L155.564 8.82695C155.092 9.19741 154.752 9.6864 154.545 10.2873L154.917 10.4175ZM155.805 9.13986C156.211 8.82186 156.671 8.66362 157.19 8.66362V8.26719C156.583 8.26719 156.039 8.4543 155.564 8.82695L155.805 9.13986ZM157.19 8.66362C157.582 8.66362 157.808 8.70273 157.909 8.75367L158.085 8.39913C157.893 8.30207 157.581 8.26719 157.19 8.26719V8.66362ZM157.802 8.54938L157.527 10.5659L157.917 10.6199L158.192 8.60343L157.802 8.54938ZM157.831 10.428C157.74 10.3667 157.618 10.3336 157.491 10.3138C157.357 10.2931 157.196 10.2837 157.006 10.2837V10.6801C157.184 10.6801 157.325 10.6892 157.431 10.7056C157.541 10.7227 157.594 10.7451 157.613 10.7578L157.831 10.428ZM157.006 10.2837C156.386 10.2837 155.818 10.4845 155.308 10.8798L155.548 11.194C155.992 10.8493 156.477 10.6801 157.006 10.6801V10.2837ZM155.306 10.8813C154.778 11.3014 154.534 11.9617 154.534 12.8129H154.927C154.927 12.0361 155.148 11.5124 155.55 11.1925L155.306 10.8813ZM154.534 12.8129V17.1789H154.927V12.8129H154.534ZM154.731 16.9807H152.749V17.3771H154.731V16.9807ZM152.945 17.1789V8.6874H152.552V17.1789H152.945ZM158.059 8.6874V8.48919H157.733L157.885 8.77984L158.059 8.6874ZM160.317 8.6874L160.494 8.60191L160.44 8.48919H160.317V8.6874ZM162.133 12.5169L162.317 12.4456L162.314 12.4383L162.31 12.4314L162.133 12.5169ZM162.721 14.0524L162.537 14.1237L162.721 14.6034L162.904 14.1237L162.721 14.0524ZM163.308 12.5169L163.13 12.4321L163.127 12.4387L163.124 12.4456L163.308 12.5169ZM165.106 8.6874V8.48919H164.982L164.929 8.60257L165.106 8.6874ZM167.308 8.6874L167.482 8.77957L167.634 8.48919H167.308V8.6874ZM162.886 17.1789V17.3771H163.004L163.059 17.2711L162.886 17.1789ZM162.5 17.1789L162.326 17.2713L162.382 17.3771H162.5V17.1789ZM158.059 8.88562H160.317V8.48919H158.059V8.88562ZM160.139 8.7729L161.956 12.6024L162.31 12.4314L160.494 8.60191L160.139 8.7729ZM161.95 12.5882L162.537 14.1237L162.904 13.9811L162.317 12.4456L161.95 12.5882ZM162.904 14.1237L163.491 12.5882L163.124 12.4456L162.537 13.9811L162.904 14.1237ZM163.485 12.6017L165.284 8.77224L164.929 8.60257L163.13 12.4321L163.485 12.6017ZM165.106 8.88562H167.308V8.48919H165.106V8.88562ZM167.134 8.59523L162.711 17.0867L163.059 17.2711L167.482 8.77957L167.134 8.59523ZM162.886 16.9807H162.5V17.3771H162.886V16.9807ZM162.674 17.0865L158.233 8.59497L157.885 8.77984L162.326 17.2713L162.674 17.0865ZM168.722 8.6874V8.48919H168.525V8.6874H168.722ZM170.777 8.6874H170.974V8.48919H170.777V8.6874ZM170.777 17.1789V17.3771H170.974V17.1789H170.777ZM168.722 17.1789H168.525V17.3771H168.722V17.1789ZM168.777 6.7079L168.916 6.56774L168.777 6.7079ZM168.777 4.8579L168.912 5.00144L168.777 4.8579ZM170.667 4.8579L170.531 5.00144L170.667 4.8579ZM170.667 6.7079L170.528 6.5677L170.525 6.5712L170.667 6.7079ZM168.722 8.88562H170.777V8.48919H168.722V8.88562ZM170.58 8.6874V17.1789H170.974V8.6874H170.58ZM170.777 16.9807H168.722V17.3771H170.777V16.9807ZM168.918 17.1789V8.6874H168.525V17.1789H168.918ZM169.731 6.89819C169.401 6.89819 169.134 6.78778 168.916 6.56774L168.638 6.84804C168.933 7.14602 169.302 7.29462 169.731 7.29462V6.89819ZM168.916 6.56774C168.697 6.34769 168.588 6.07823 168.588 5.7459H168.195C168.195 6.17823 168.342 6.55011 168.638 6.84804L168.916 6.56774ZM168.588 5.7459C168.588 5.45696 168.693 5.2122 168.912 5.00144L168.641 4.71437C168.347 4.99694 168.195 5.34418 168.195 5.7459H168.588ZM168.912 5.00144C169.13 4.79244 169.398 4.68612 169.731 4.68612V4.28969C169.305 4.28969 168.937 4.43002 168.641 4.71437L168.912 5.00144ZM169.731 4.68612C170.049 4.68612 170.312 4.79119 170.531 5.00144L170.802 4.71437C170.507 4.43128 170.146 4.28969 169.731 4.28969V4.68612ZM170.531 5.00144C170.751 5.2122 170.856 5.45696 170.856 5.7459H171.249C171.249 5.34418 171.097 4.99694 170.802 4.71437L170.531 5.00144ZM170.856 5.7459C170.856 6.07823 170.746 6.34769 170.528 6.56774L170.806 6.84804C171.101 6.55011 171.249 6.17823 171.249 5.7459H170.856ZM170.525 6.5712C170.319 6.78798 170.061 6.89819 169.731 6.89819V7.29462C170.159 7.29462 170.525 7.14582 170.809 6.8446L170.525 6.5712ZM175.191 16.8274L175.095 17.0007L175.099 17.0028L175.191 16.8274ZM173.613 15.2549L173.442 15.3532L173.442 15.3546L173.613 15.2549ZM173.558 10.5374L173.385 10.4411L173.385 10.4423L173.558 10.5374ZM175.081 9.0019L174.988 8.82728L174.987 8.828L175.081 9.0019ZM179.026 8.7244L178.958 8.91046L178.964 8.91244L179.026 8.7244ZM180.146 9.3349L180.318 9.43064L180.393 9.29354L180.278 9.18822L180.146 9.3349ZM179.265 10.9444L179.125 11.0845L179.311 11.2709L179.437 11.0401L179.265 10.9444ZM175.723 10.8889L175.574 10.7586L175.573 10.7609L175.723 10.8889ZM175.742 14.9404L175.59 15.0669L175.591 15.0691L175.742 14.9404ZM178.623 15.5324L178.566 15.3425L178.564 15.3431L178.623 15.5324ZM179.467 15.1439L179.642 15.0534L179.535 14.8443L179.349 14.9853L179.467 15.1439ZM180.183 16.5499L180.303 16.7068L180.432 16.606L180.358 16.4594L180.183 16.5499ZM179.045 17.1234L179.107 17.3114L179.11 17.3105L179.045 17.1234ZM177.448 17.1657C176.645 17.1657 175.924 16.9933 175.283 16.652L175.099 17.0028C175.803 17.3768 176.587 17.5621 177.448 17.5621V17.1657ZM175.286 16.6542C174.658 16.302 174.157 15.8037 173.783 15.1552L173.442 15.3546C173.851 16.0628 174.403 16.6128 175.095 17.0006L175.286 16.6542ZM173.783 15.1566C173.412 14.5004 173.222 13.7276 173.222 12.8314H172.829C172.829 13.7852 173.031 14.6281 173.442 15.3532L173.783 15.1566ZM173.222 12.8314C173.222 11.9832 173.394 11.2523 173.73 10.6325L173.385 10.4423C173.012 11.1298 172.829 11.9283 172.829 12.8314H173.222ZM173.729 10.6337C174.079 9.99965 174.56 9.51508 175.175 9.1758L174.987 8.828C174.304 9.20408 173.77 9.74316 173.385 10.4411L173.729 10.6337ZM175.174 9.17653C175.802 8.83639 176.527 8.66362 177.356 8.66362V8.26719C176.472 8.26719 175.681 8.45206 174.988 8.82728L175.174 9.17653ZM177.356 8.66362C177.988 8.66362 178.52 8.74786 178.958 8.91039L179.094 8.53841C178.602 8.35559 178.021 8.26719 177.356 8.26719V8.66362ZM178.964 8.91244C179.424 9.06718 179.77 9.25912 180.014 9.48158L180.278 9.18822C179.982 8.91733 179.582 8.70227 179.088 8.53636L178.964 8.91244ZM179.974 9.23916L179.093 10.8487L179.437 11.0401L180.318 9.43064L179.974 9.23916ZM179.404 10.8043C178.858 10.254 178.228 9.96919 177.522 9.96919V10.3656C178.111 10.3656 178.644 10.5988 179.125 11.0845L179.404 10.8043ZM177.522 9.96919C176.697 9.96919 176.037 10.2245 175.574 10.7587L175.871 11.0191C176.241 10.5913 176.78 10.3656 177.522 10.3656V9.96919ZM175.573 10.7609C175.131 11.2865 174.921 11.9774 174.921 12.8129H175.314C175.314 12.045 175.507 11.4533 175.873 11.0169L175.573 10.7609ZM174.921 12.8129C174.921 13.754 175.135 14.514 175.59 15.0669L175.893 14.8139C175.515 14.3554 175.314 13.6972 175.314 12.8129H174.921ZM175.591 15.0691C176.063 15.6258 176.715 15.8971 177.522 15.8971V15.5007C176.811 15.5007 176.276 15.2664 175.891 14.8117L175.591 15.0691ZM177.522 15.8971C177.92 15.8971 178.307 15.8387 178.681 15.7217L178.564 15.3431C178.229 15.4481 177.881 15.5007 177.522 15.5007V15.8971ZM178.679 15.7222C179.057 15.6079 179.363 15.4701 179.585 15.3025L179.349 14.9853C179.179 15.1137 178.922 15.2349 178.566 15.3426L178.679 15.7222ZM179.292 15.2344L180.008 16.6404L180.358 16.4594L179.642 15.0534L179.292 15.2344ZM180.062 16.393C179.816 16.5848 179.458 16.7674 178.98 16.9363L179.11 17.3105C179.61 17.1341 180.01 16.9344 180.303 16.7068L180.062 16.393ZM178.983 16.9354C178.528 17.0879 178.018 17.1657 177.448 17.1657V17.5621C178.053 17.5621 178.606 17.4795 179.106 17.3114L178.983 16.9354ZM183.538 16.7719L183.436 16.9419L183.439 16.9432L183.538 16.7719ZM182.051 15.1624L181.873 15.2471L181.874 15.2484L182.051 15.1624ZM182.125 10.5744L181.953 10.4771L181.952 10.4795L182.125 10.5744ZM183.684 9.0204L183.778 9.19503L183.779 9.19364L183.684 9.0204ZM188.804 9.5569L188.656 9.68653L188.658 9.68924L188.804 9.5569ZM189.704 13.6269V13.8251H189.881L189.899 13.6473L189.704 13.6269ZM183.648 13.6269V13.4287H183.412L183.454 13.6621L183.648 13.6269ZM184.437 15.2549L184.31 15.4064L184.312 15.4083L184.437 15.2549ZM187.557 15.6064L187.507 15.4145L187.557 15.6064ZM188.603 15.1994L188.783 15.1213L188.698 14.9222L188.509 15.0249L188.603 15.1994ZM189.208 16.6239L189.314 16.7909L189.455 16.7003L189.388 16.5458L189.208 16.6239ZM187.96 17.1419L187.907 16.951L187.96 17.1419ZM187.832 12.2394V12.4376H188.025L188.028 12.2426L187.832 12.2394ZM187.336 10.6299L187.202 10.7752L187.205 10.7778L187.336 10.6299ZM183.648 12.2394L183.453 12.2116L183.421 12.4376H183.648V12.2394ZM186.052 17.1657C185.073 17.1657 184.272 16.9732 183.636 16.6006L183.439 16.9432C184.149 17.3599 185.023 17.5621 186.052 17.5621V17.1657ZM183.639 16.602C182.996 16.2134 182.528 15.705 182.228 15.0764L181.874 15.2484C182.21 15.9518 182.733 16.5164 183.436 16.9418L183.639 16.602ZM182.229 15.0777C181.924 14.4276 181.771 13.7168 181.771 12.9424H181.377C181.377 13.7713 181.542 14.5405 181.873 15.2471L182.229 15.0777ZM181.771 12.9424C181.771 12.0697 181.948 11.3141 182.297 10.6693L181.952 10.4795C181.566 11.1914 181.377 12.0144 181.377 12.9424H181.771ZM182.296 10.6717C182.657 10.0251 183.15 9.53437 183.778 9.19503L183.591 8.84578C182.897 9.22179 182.35 9.76708 181.953 10.4771L182.296 10.6717ZM183.779 9.19364C184.408 8.84161 185.121 8.66362 185.923 8.66362V8.26719C185.061 8.26719 184.282 8.45919 183.589 8.84716L183.779 9.19364ZM185.923 8.66362C187.184 8.66362 188.081 9.0165 188.656 9.68653L188.953 9.42727C188.279 8.64194 187.256 8.26719 185.923 8.26719V8.66362ZM188.658 9.68924C189.251 10.3568 189.562 11.3146 189.562 12.5909H189.955C189.955 11.2525 189.629 10.1876 188.951 9.42456L188.658 9.68924ZM189.562 12.5909C189.562 12.9166 189.544 13.2551 189.508 13.6065L189.899 13.6473C189.936 13.2834 189.955 12.9312 189.955 12.5909H189.562ZM189.704 13.4287H183.648V13.8251H189.704V13.4287ZM183.454 13.6621C183.593 14.4387 183.87 15.0322 184.31 15.4064L184.563 15.1034C184.221 14.8116 183.972 14.3197 183.841 13.5918L183.454 13.6621ZM184.312 15.4083C184.762 15.7792 185.368 15.9526 186.107 15.9526V15.5562C185.426 15.5562 184.919 15.3966 184.561 15.1015L184.312 15.4083ZM186.107 15.9526C186.703 15.9526 187.204 15.9027 187.606 15.7983L187.507 15.4145C187.15 15.5074 186.685 15.5562 186.107 15.5562V15.9526ZM187.606 15.7983C187.999 15.696 188.363 15.5547 188.696 15.3739L188.509 15.0249C188.206 15.1894 187.872 15.3195 187.507 15.4145L187.606 15.7983ZM188.422 15.2775L189.027 16.702L189.388 16.5458L188.783 15.1213L188.422 15.2775ZM189.102 16.4569C188.819 16.6398 188.423 16.8059 187.907 16.951L188.013 17.3328C188.549 17.1819 188.985 17.0027 189.314 16.7909L189.102 16.4569ZM187.907 16.951C187.403 17.0927 186.786 17.1657 186.052 17.1657V17.5621C186.809 17.5621 187.465 17.4871 188.013 17.3328L187.907 16.951ZM188.028 12.2426C188.041 11.4568 187.873 10.8477 187.467 10.482L187.205 10.7778C187.484 11.0288 187.647 11.4927 187.635 12.2362L188.028 12.2426ZM187.47 10.4847C187.079 10.1192 186.535 9.95069 185.868 9.95069V10.3471C186.473 10.3471 186.908 10.4992 187.202 10.7751L187.47 10.4847ZM185.868 9.95069C185.19 9.95069 184.631 10.1355 184.215 10.5266C183.802 10.9159 183.555 11.4868 183.453 12.2116L183.842 12.2672C183.936 11.5984 184.157 11.124 184.483 10.8164C184.808 10.5108 185.261 10.3471 185.868 10.3471V9.95069ZM183.648 12.4376H187.832V12.0412H183.648V12.4376Z" fill="white"/>
<path d="M0 33.0357V2.64282C14.4189 2.643 18.6791 2.97318 38.9966 2.9733C40.8285 2.97332 35.8288 8.80953 34.4088 9.25003H6.88176V14.2054C27.1993 14.5357 25.8749 14.5357 29.8209 14.5357C31.1318 14.5357 27.8547 19.491 25.5608 21.1429H6.88176V29.7321C6.88176 32.1107 2.29392 32.7054 0 33.0357Z" fill="#E3E6EA"/>
<path d="M48.5006 2.97314C44.5682 3.50172 43.1481 7.37793 42.9297 9.24993V9.58029V9.91064H49.4828C52.7589 9.91064 56.3646 9.91064 60.297 9.58029C63.8143 9.28482 64.8849 5.616 64.5581 2.97314H64.2304H55.0547H48.5006Z" fill="#B7BFC9"/>
<path d="M34.7377 20.4821C32.4978 20.4821 37.3586 14.5357 39.6542 14.2053H62.2657C63.5765 14.2053 64.1226 15.9672 64.2319 16.8482C64.2319 21.9137 64.1664 32.0446 63.9042 32.0446H31.7893C20.646 32.0446 17.041 32.375 14.4197 32.0446C12.0745 31.7491 16.0586 26.6488 18.3525 25.7678H57.6769L58.0046 20.4821H40.3086H34.7377Z" fill="#B7BFC9"/>
</svg>
